/* XPM */
static const char *circular_5_xpm[] = {
/* columns rows colors chars-per-pixel */
"16 16 69 1 ",
"  c #006699",
". c #016799",
"X c #026799",
"o c #04689A",
"O c #04699A",
"+ c #06699A",
"@ c #066A9A",
"# c #076A9A",
"$ c #086B9B",
"% c #0E6D9D",
"& c #0E6E9E",
"* c #0F6E9E",
"= c #106F9C",
"- c #10709C",
"; c #10709D",
": c #17749E",
"> c #1E789F",
", c #20799F",
"< c #1C76A0",
"1 c #2379A1",
"2 c #257CA0",
"3 c #267DA1",
"4 c #297EA1",
"5 c #2F82A2",
"6 c #2E80A4",
"7 c #3183A3",
"8 c #3485A4",
"9 c #3586A4",
"0 c #3988A4",
"q c #3988A5",
"w c #3986AC",
"e c #3C88AD",
"r c #408CA6",
"t c #4088AB",
"y c #4690A7",
"u c #4C93A8",
"i c #4F95A9",
"p c #5197A9",
"a c #5599AA",
"s c #5E9EAC",
"d c #5F9FAC",
"f c #61A0AC",
"g c #65A3AD",
"h c #6BA6AE",
"j c #6FA5B4",
"k c #73ABB0",
"l c #74ACB0",
"z c #78AEB1",
"x c #7CA8BD",
"c c #7FACC2",
"v c #86ADBD",
"b c #80B3B3",
"n c #82B4B3",
"m c #8DBBB5",
"M c #8EBBB5",
"N c #94BFB7",
"B c #9BC3B8",
"V c #9CC4B8",
"C c #A1C6B9",
"Z c #AFCFBC",
"A c #B3D1BD",
"S c #BED8BF",
"D c #82AFC5",
"F c #83AFC6",
"G c #88B1C4",
"H c #9DBCC4",
"J c #A1BDC3",
"K c #CDE1C2",
"L c None",
/* pixels */
"LLLLLLLLLLLLLLLL",
"LLLLLLLLLLLLLLLL",
"LLLLLLLLLLLLLLLL",
"LLLLLF&  =FLLLLL",
"LLLLw   ++ eLLLL",
"LLLc  +:254OGLLL",
"LLL& $,9ypa3<LLL",
"LLL  >0pgkzf LLL",
"LLL ;7uhbNBz LLL",
"LLL&;rfbVASu6LLL",
"LLLxO0hMZKC+HLLL",
"LLLLt+5lMs=jLLLL",
"LLLLLv2  9JLLLLL",
"LLLLLLLLLLLLLLLL",
"LLLLLLLLLLLLLLLL",
"LLLLLLLLLLLLLLLL"
};
