/* XPM */
static const char *circular_3_xpm[] = {
/* columns rows colors chars-per-pixel */
"16 16 28 1 ",
"  c #006699",
". c #016699",
"X c #016799",
"o c #04699A",
"O c #06699A",
"+ c #076A9A",
"@ c #086B9B",
"# c #096B9B",
"$ c #0C6D9B",
"% c #0D6D9B",
"& c #15739D",
"* c #19759E",
"= c #1E789F",
"- c #2C7DA6",
"; c #2C7EA7",
": c #3083A3",
"> c #3584A9",
", c #3B86A9",
"< c #4690A7",
"1 c #5096A9",
"2 c #5499AA",
"3 c #599BAB",
"4 c #5C9BB0",
"5 c #639FB1",
"6 c #6BA6AF",
"7 c #7DB1B2",
"8 c #82B4B3",
"9 c None",
/* pixels */
"9999999999999999",
"9999999999999999",
"9999999999999999",
"9999999999999999",
"9999999999999999",
"999999;..;999999",
"99999;..&O>99999",
"99999.O:1<O99999",
"99999.=386$99999",
"99999;#27*499999",
"999999,#$5999999",
"9999999999999999",
"9999999999999999",
"9999999999999999",
"9999999999999999",
"9999999999999999"
};
