/* XPM */
static const char *circular_2_xpm[] = {
/* columns rows colors chars-per-pixel */
"16 16 14 1 ",
"  c #016699",
". c #04689A",
"X c #06699A",
"o c #0C6D9B",
"O c #0E6F9C",
"+ c #18759E",
"@ c #1B769F",
"# c #227BA0",
"$ c #3888A4",
"% c #7DA9BF",
"& c #7EABC1",
"* c #7FABC2",
"= c #A9C3C8",
"- c None",
/* pixels */
"----------------",
"----------------",
"----------------",
"----------------",
"----------------",
"----------------",
"------&..&------",
"------ .@.------",
"------ #$O------",
"------%O+=------",
"----------------",
"----------------",
"----------------",
"----------------",
"----------------",
"----------------"
};
