/* XPM */
static const char *circular_7_xpm[] = {
/* columns rows colors chars-per-pixel */
"16 16 105 2 ",
"   c #006699",
".  c #016699",
"X  c #016799",
"o  c #026799",
"O  c #036799",
"+  c #04689A",
"@  c #05689A",
"#  c #05699A",
"$  c #066A9A",
"%  c #076A9A",
"&  c #086A9B",
"*  c #086B9B",
"=  c #096B9B",
"-  c #0B6D9B",
";  c #086A9C",
":  c #086B9C",
">  c #0E6F9C",
",  c #106F9C",
"<  c #10709C",
"1  c #12709C",
"2  c #12719D",
"3  c #13719D",
"4  c #13729D",
"5  c #14729D",
"6  c #15739E",
"7  c #19759E",
"8  c #1B759F",
"9  c #1C779F",
"0  c #20799F",
"q  c #2079A0",
"w  c #2179A0",
"e  c #217AA0",
"r  c #227AA0",
"t  c #247BA1",
"y  c #287EA1",
"u  c #2A7FA1",
"i  c #2B80A2",
"p  c #2F82A2",
"a  c #3082A3",
"s  c #3183A3",
"d  c #3284A3",
"f  c #3686A4",
"g  c #3787A4",
"h  c #3887A4",
"j  c #3C8AA5",
"k  c #3783A9",
"l  c #3985AC",
"z  c #3B88AE",
"x  c #418DA6",
"c  c #498FAF",
"v  c #4992A8",
"b  c #4B93A8",
"n  c #4D90AB",
"m  c #4D94A8",
"M  c #4F95A9",
"N  c #5096A9",
"B  c #589BAB",
"V  c #5A9CAB",
"C  c #5F9FAC",
"Z  c #5B96B2",
"A  c #5F98B2",
"S  c #5B99B8",
"D  c #5C9AB9",
"F  c #5D9AB9",
"G  c #609CB1",
"H  c #679FB1",
"J  c #619DB9",
"K  c #61A0AC",
"L  c #67A4AE",
"P  c #69A5AE",
"I  c #6BA6AE",
"U  c #6EA8AF",
"Y  c #72AAB0",
"T  c #79AFB1",
"R  c #7EB2B2",
"E  c #84AFBA",
"W  c #80B3B3",
"Q  c #82B4B3",
"!  c #86B6B3",
"~  c #8FBCB6",
"^  c #87B0BA",
"/  c #90BCB6",
"(  c #93BFB6",
")  c #95BFB7",
"_  c #98C1B7",
"`  c #9BC3B8",
"'  c #A5C9BA",
"]  c #B0D0BC",
"[  c #B4D2BD",
"{  c #B9D5BE",
"}  c #BCC6CB",
"|  c #BFCAD0",
" . c #C4CBCC",
".. c #C1DAC0",
"X. c #C8DEC1",
"o. c #C8D0D2",
"O. c #C9D6DC",
"+. c #CCD7DC",
"@. c #D2D2D2",
"#. c #CDE1C2",
"$. c #DCEAC5",
"%. c #DDEBC5",
"&. c #E6F0C7",
"*. c #CFDCE2",
"=. c None",
/* pixels */
"=.=.=.=.=.=.=.=.=.=.=.=.=.=.=.=.",
"=.=.=.=.*.z :     : z *.=.=.=.=.",
"=.=.=.D               X D =.=.=.",
"=.=.S         = 3 7 9 5 X J =.=.",
"=.O.      # 3 0 y s f f r # +.=.",
"=.l     = 7 y f x b N N M , c =.",
"=.;   # 7 i j b B K L P L h 5 =.",
"=.    3 y j M C U T W Q W P   =.",
"=.  = 0 f b C Y Q / _ ` _ R   =.",
"=.= - y x B U Q ) ' ] [ ] V r =.",
"=.k = s b C T / ' { X.#...r G =.",
"=.|   r M L W _ ] X.$.&.R , o.=.",
"=.=.Z # d P Q ` [ #.$.~ > E =.=.",
"=.=.@.A # 5 b ! _ P p 3 ^ =.=.=.",
"=.=.=.=.} n 9 X   r H  .=.=.=.=.",
"=.=.=.=.=.=.=.=.=.=.=.=.=.=.=.=."
};
