/* XPM */
static const char *circular_6_xpm[] = {
/* columns rows colors chars-per-pixel */
"16 16 96 2 ",
"   c #006699",
".  c #016799",
"X  c #026799",
"o  c #03689A",
"O  c #05699A",
"+  c #076A9A",
"@  c #086A9B",
"#  c #0A6C9B",
"$  c #0C6D9B",
"%  c #086A9C",
"&  c #086B9C",
"*  c #096C9C",
"=  c #0C6D9C",
"-  c #0D6D9C",
";  c #0E6E9C",
":  c #0F6F9C",
">  c #0E6E9D",
",  c #12709D",
"<  c #12719D",
"1  c #13729D",
"2  c #15729E",
"3  c #18749E",
"4  c #19759E",
"5  c #1A749F",
"6  c #1A769E",
"7  c #1C779F",
"8  c #217AA0",
"9  c #227AA0",
"0  c #257CA1",
"q  c #267CA1",
"w  c #277DA1",
"e  c #297FA1",
"r  c #297EA2",
"t  c #2D80A3",
"y  c #3083A3",
"u  c #3183A3",
"i  c #3385A3",
"p  c #3586A4",
"a  c #3988A5",
"s  c #3C8AA5",
"d  c #3E8BA5",
"f  c #418DA6",
"g  c #428EA6",
"h  c #438EA6",
"j  c #448FA6",
"k  c #4690A7",
"l  c #4E95A9",
"z  c #5096A9",
"x  c #5297A9",
"c  c #589BAB",
"v  c #599BAB",
"b  c #5A9CAB",
"n  c #5794B2",
"m  c #5997B6",
"M  c #5C9AB9",
"N  c #689DB4",
"B  c #679FB9",
"V  c #60A0AC",
"C  c #61A0AC",
"Z  c #61A0AD",
"A  c #68A4AE",
"S  c #6AA6AE",
"D  c #6BA6AE",
"F  c #6FA9AF",
"G  c #74ACB0",
"H  c #76ADB1",
"J  c #7AAFB1",
"K  c #7EABBB",
"L  c #7DB1B2",
"P  c #7EB2B2",
"I  c #83AEB9",
"U  c #81B3B3",
"Y  c #82B4B3",
"T  c #83B4B3",
"R  c #86B6B4",
"E  c #8FBCB6",
"W  c #91BDB6",
"Q  c #96C0B7",
"!  c #98C1B7",
"~  c #9AC2B8",
"^  c #9BC3B8",
"/  c #9FC5B9",
"(  c #AACCBB",
")  c #ABCDBB",
"_  c #B3D1BD",
"`  c #B7D4BE",
"'  c #B8D4BE",
"]  c #C1DABF",
"[  c #BEC9CE",
"{  c #C2DAC0",
"}  c #C8CFD0",
"|  c #CCD8DE",
" . c #D0E3C3",
".. c #D3E5C3",
"X. c #D6E6C4",
"o. c None",
/* pixels */
"o.o.o.o.o.o.o.o.o.o.o.o.o.o.o.o.",
"o.o.o.o.o.o.o.o.o.o.o.o.o.o.o.o.",
"o.o.o.o.o.M &     & M o.o.o.o.o.",
"o.o.o.| &         X X & | o.o.o.",
"o.o.o.%     X : 7 9 0 = : o.o.o.",
"o.o.m     + 3 e p s g s & B o.o.",
"o.o.%   + 7 y g z b V V i 2 o.o.",
"o.o.    3 y k v D H P P D X o.o.",
"o.o.  = q f v F Y W ~ ~ T   o.o.",
"o.o.@ = p z A U ! ) ` ` Z 9 o.o.",
"o.o.n + a v G E ) ] ..] : K o.o.",
"o.o.o.- 1 z P W _  .X.g e o.o.o.",
"o.o.o.[ < = j R / H < t } o.o.o.",
"o.o.o.o.o.N 7     0 I o.o.o.o.o.",
"o.o.o.o.o.o.o.o.o.o.o.o.o.o.o.o.",
"o.o.o.o.o.o.o.o.o.o.o.o.o.o.o.o."
};
