/* XPM */
static const char *circular_4_xpm[] = {
/* columns rows colors chars-per-pixel */
"16 16 48 1 ",
"  c #006699",
". c #016699",
"X c #016799",
"o c #036799",
"O c #03689A",
"+ c #05689A",
"@ c #076A9A",
"# c #086B9A",
"$ c #0A6C9B",
"% c #0F6F9C",
"& c #14719D",
"* c #16739D",
"= c #15719F",
"- c #16749D",
"; c #20799F",
": c #1672A0",
"> c #217AA0",
", c #247BA3",
"< c #267DA1",
"1 c #297DA3",
"2 c #3586A4",
"3 c #3C89A8",
"4 c #408CA6",
"5 c #418DA6",
"6 c #458FA7",
"7 c #448DA8",
"8 c #5297AA",
"9 c #5398A9",
"0 c #5D9EAC",
"q c #64A2AD",
"w c #6AA6AE",
"e c #6CA7AF",
"r c #72ABB0",
"t c #7CB0B2",
"y c #82B4B3",
"u c #8AB8B5",
"i c #97C1B7",
"p c #A2C7B9",
"a c #BFD9BF",
"s c #91B3C4",
"d c #97B6C4",
"f c #96B9CA",
"g c #97BACB",
"h c #99BBCA",
"j c #98BACB",
"k c #AFC5CA",
"l c #B1C6C9",
"z c None",
/* pixels */
"zzzzzzzzzzzzzzzz",
"zzzzzzzzzzzzzzzz",
"zzzzzzzzzzzzzzzz",
"zzzzzzzzzzzzzzzz",
"zzzzzg:..:hzzzzz",
"zzzzg...$#.hzzzz",
"zzzz=.@>25-,zzzz",
"zzzz.O<60e9.zzzz",
"zzzzO-3qyirXzzzz",
"zzzz&&9tpl33zzzz",
"zzzzsO-wi5-lzzzz",
"zzzzzd2OX6lzzzzz",
"zzzzzzzzzzzzzzzz",
"zzzzzzzzzzzzzzzz",
"zzzzzzzzzzzzzzzz",
"zzzzzzzzzzzzzzzz"
};
