/* XPM */
static const char *house_exit_xpm[] = {
/* columns rows colors chars-per-pixel */
"32 32 3 1 ",
"  c black",
". c magenta",
"X c white",
/* pixels */
"................................",
"................................",
".....                       ....",
".....  XXX   X X   X   XXX  ....",
".....  X     X X   X    X   ....",
".....  XX     X    X    X   ....",
".....  X     X X   X    X   ....",
".....  XXX   X X   X    X   ....",
".....                       ....",
"................................",
"................................",
"...........          ...........",
"...........    XXXXXX ..........",
"...........     XXXXX ..........",
"...........      XXXX ..........",
"...........       XXX ..........",
"...........        XX ..........",
"...........        XX ..........",
"...........        XX ..........",
"...........        XX ..........",
"...........        XX ..........",
"...........        XX ..........",
"...........        XX ..........",
"...........        XX ..........",
"............       XX ..........",
".............        ...........",
"..............     .............",
"...............    .............",
"................   .............",
".................  .............",
".................. .............",
"................................"
};
