/* XPM */
static const char *mini_paste_xpm[] = {
"16 16 74 1",
" 	c None",
".	c #A1A1A1",
"+	c #A87838",
"@	c #9D8A6F",
"#	c #969696",
"$	c #FBFBFB",
"%	c #A67536",
"&	c #F7E8D0",
"*	c #878787",
"=	c #F4F4F4",
"-	c #E9E9E9",
";	c #A37234",
">	c #EBCB94",
",	c #E3B567",
"'	c #A39170",
")	c #777777",
"!	c #9F6E32",
"~	c #E9C792",
"{	c #DFB064",
"]	c #DFAF63",
"^	c #9B692F",
"/	c #E5C48F",
"(	c #DAAB60",
"_	c #DAAA5F",
":	c #B8A586",
"<	c #96642B",
"[	c #E2BF8D",
"}	c #D5A55C",
"|	c #D5A45B",
"1	c #9C9C9C",
"2	c #FDFDFD",
"3	c #C2C2C2",
"4	c #915F28",
"5	c #DEBB89",
"6	c #D09F57",
"7	c #D09E56",
"8	c #959595",
"9	c #EBEBEB",
"0	c #EAEAEA",
"a	c #8D5925",
"b	c #DAB686",
"c	c #CA9852",
"d	c #CA9751",
"e	c #8D8D8D",
"f	c #EDEDED",
"g	c #885321",
"h	c #D6B283",
"i	c #C4924E",
"j	c #C4914D",
"k	c #858585",
"l	c #EEEEEE",
"m	c #834E1E",
"n	c #D2AE7F",
"o	c #BF8C49",
"p	c #BE8B48",
"q	c #7B7B7B",
"r	c #7E491A",
"s	c #CEAA7C",
"t	c #BA8645",
"u	c #B98544",
"v	c #727272",
"w	c #EFEFEF",
"x	c #7A4417",
"y	c #CBA67A",
"z	c #B58141",
"A	c #686868",
"B	c #F0F0F0",
"C	c #764015",
"D	c #C8A378",
"E	c #606060",
"F	c #F1F1F1",
"G	c #733D13",
"H	c #585858",
"I	c #515151",
"    ....        ",
"+++@#$$#@+++    ",
"%&&*=--=*&&%    ",
";>,'))))',>;    ",
"!~{]]]]]]{~!    ",
"^/(___:.......  ",
"<[}|||122222213 ",
"4567778290--2888",
"abcddde2f90-222e",
"ghijjjk2lf90--2k",
"mnopppq2llf90-2q",
"rstuuuv2wllf902v",
"xyzzzzA2Bwllf92A",
"CDDDDDE2FBwllf2E",
"GGGGGGH22222222H",
"      IIIIIIIIII"};
