/* XPM */
static char * mini_erase_xpm[] = {
"16 16 62 1",
" 	c None",
".	c #FDB8C9",
"+	c #FEB9CA",
"@	c #FCB5C6",
"#	c #ECA5B6",
"$	c #ECA7B8",
"%	c #AD0224",
"&	c #B00225",
"*	c #FBB3C4",
"=	c #EAA2B3",
"-	c #EBA4B5",
";	c #A90224",
">	c #F9B0C1",
",	c #E99FB0",
"'	c #E9A1B2",
")	c #DC8798",
"!	c #EE99AA",
"~	c #A50223",
"{	c #F8F8F8",
"]	c #F5F5F5",
"^	c #E89DAE",
"/	c #D98495",
"(	c #DB8697",
"_	c #ED98A9",
":	c #A10222",
"<	c #F6F6F6",
"[	c #F2F2F2",
"}	c #D68192",
"|	c #D88394",
"1	c #EA95A6",
"2	c #9F0222",
"3	c #F4F4F4",
"4	c #EFEFEF",
"5	c #D27D8E",
"6	c #D47F90",
"7	c #E792A3",
"8	c #9D0221",
"9	c #F3F3F3",
"0	c #ECECEC",
"a	c #CECECE",
"b	c #D0D0D0",
"c	c #E38E9F",
"d	c #9B0221",
"e	c #F1F1F1",
"f	c #E9E9E9",
"g	c #CACACA",
"h	c #CCCCCC",
"i	c #DCDCDC",
"j	c #F0F0F0",
"k	c #E6E6E6",
"l	c #C6C6C6",
"m	c #C8C8C8",
"n	c #D8D8D8",
"o	c #E3E3E3",
"p	c #C2C2C2",
"q	c #C4C4C4",
"r	c #D4D4D4",
"s	c #E1E1E1",
"t	c #BFBFBF",
"u	c #C0C0C0",
"v	c #D1D1D1",
"w	c #DFDFDF",
"                ",
"          .+    ",
"         @#$+%  ",
"       &*=-#$+; ",
"       >,'=-#)!~",
"      {]^,'=/(_:",
"     <[[[^,}|12 ",
"    3444445678  ",
"   900000abcd   ",
"  efffffghi     ",
" jkkkkklmn      ",
" joooopqr       ",
"  jsstuv        ",
"   waaa         ",
"                ",
"                "};
