/* XPM */
static const char *mini_delete_xpm[] = {
"16 16 132 2",
"  	c None",
". 	c #BAB9BA",
"+ 	c #B9BABA",
"@ 	c #BCBBBB",
"# 	c #6A6A6A",
"$ 	c #696A6A",
"% 	c #686969",
"& 	c #676768",
"* 	c #B9B9B9",
"= 	c #B8B8B8",
"- 	c #B7B7B7",
"; 	c #ADACAD",
"> 	c #CACACA",
", 	c #E3E3E3",
"' 	c #ECEBEC",
") 	c #A0A0A0",
"! 	c #F9F9FA",
"~ 	c #FCFCFC",
"{ 	c #9FA09F",
"] 	c #F1F1F1",
"^ 	c #E8E9E9",
"/ 	c #C9C9C9",
"( 	c #A9A9A9",
"_ 	c #A1A2A1",
": 	c #C1C1C0",
"< 	c #D5D5D4",
"[ 	c #DDDCDD",
"} 	c #EDEDED",
"| 	c #F5F4F5",
"1 	c #F5F5F4",
"2 	c #F6F5F5",
"3 	c #EFEFEF",
"4 	c #D1D1D1",
"5 	c #999999",
"6 	c #929392",
"7 	c #B3B4B4",
"8 	c #969596",
"9 	c #969696",
"0 	c #9A9A9A",
"a 	c #9A999A",
"b 	c #A3A3A2",
"c 	c #B7B8B8",
"d 	c #C5C5C5",
"e 	c #C8C8C8",
"f 	c #E0DFE0",
"g 	c #898989",
"h 	c #7B7C7B",
"i 	c #8B8C8B",
"j 	c #9F9F9F",
"k 	c #B6B6B6",
"l 	c #CACACB",
"m 	c #E0E0DF",
"n 	c #E5E5E5",
"o 	c #E8E8E9",
"p 	c #DADAD9",
"q 	c #979696",
"r 	c #757675",
"s 	c #939392",
"t 	c #808080",
"u 	c #737374",
"v 	c #737373",
"w 	c #686868",
"x 	c #676666",
"y 	c #797978",
"z 	c #848484",
"A 	c #8F8E8F",
"B 	c #8C8D8C",
"C 	c #9A9A99",
"D 	c #B2B1B2",
"E 	c #9D9D9D",
"F 	c #ACADAC",
"G 	c #BEBDBD",
"H 	c #D2D2D1",
"I 	c #FFFFFF",
"J 	c #F3F4F3",
"K 	c #959696",
"L 	c #909090",
"M 	c #B1B1B1",
"N 	c #9C9B9B",
"O 	c #BABABA",
"P 	c #CFCFCF",
"Q 	c #A7A8A8",
"R 	c #F3F4F4",
"S 	c #8C8D8D",
"T 	c #878787",
"U 	c #B1B0B1",
"V 	c #9A9B9B",
"W 	c #D1D1D0",
"X 	c #D0D0D0",
"Y 	c #A9A8A9",
"Z 	c #858585",
"` 	c #7E7F7F",
" .	c #9B9B9B",
"..	c #D1D0D1",
"+.	c #CFD0D0",
"@.	c #F4F4F3",
"#.	c #7D7C7C",
"$.	c #777777",
"%.	c #B2B1B1",
"&.	c #9B9A9B",
"*.	c #D0D1D0",
"=.	c #BABAB9",
"-.	c #F3F3F4",
";.	c #757575",
">.	c #707070",
",.	c #B2B2B2",
"'.	c #BABABB",
").	c #A8A8A8",
"!.	c #6E6E6E",
"~.	c #6B6A6A",
"{.	c #9D9D9C",
"].	c #AAABAA",
"^.	c #BBBABB",
"/.	c #CECFCF",
"(.	c #F0F0F0",
"_.	c #696868",
":.	c #646465",
"<.	c #818181",
"[.	c #989898",
"}.	c #A3A2A2",
"|.	c #BFBFBF",
"1.	c #D2D2D3",
"2.	c #D9D9D8",
"3.	c #E2E2E2",
"4.	c #939393",
"5.	c #636364",
"6.	c #626162",
"7.	c #616161",
"8.	c #606060",
"9.	c #605F60",
"0.	c #5F5F5F",
"a.	c #5F6060",
"                                ",
"      . + @ # $ % & * = -       ",
"    ; > , ' ) ! ~ { ] ^ / (     ",
"    _ : < [ , } | 1 2 3 4 5     ",
"    6 7 8 9 0 a b c d e f g     ",
"    h i j ( k l m n o p q r     ",
"      s t u v w x y z A B       ",
"      C D E F G H ] I J K       ",
"      L M N 4 O P Q I R S       ",
"      T U V W O X Y I R Z       ",
"      ` M  ...O +.Y I @.#.      ",
"      $.%.&.*.=.X ( I -.;.      ",
"      >.,. .W '.P ).I J !.      ",
"      ~.,.{.].^./.(.I -._.      ",
"      :.<.[.}.|.1.2.3.4.5.      ",
"          6.7.8.9.0.a.          "};
