/* XPM */
static const char *mini_replace_xpm[] = {
"16 16 118 2",
"  	c None",
". 	c #1984B9",
"+ 	c #0E7EB6",
"@ 	c #097BB4",
"# 	c #087BB4",
"$ 	c #097BB5",
"% 	c #FFFFFF",
"& 	c #CDEFFF",
"* 	c #CEEFFF",
"= 	c #D2F3FF",
"- 	c #7E939E",
"; 	c #CFF0FF",
"> 	c #D0F0FF",
", 	c #D4F5FF",
"' 	c #8296A1",
") 	c #D4F4FF",
"! 	c #4585BA",
"~ 	c #4284B9",
"{ 	c #0C7DB5",
"] 	c #E2FAFF",
"^ 	c #E0FAFF",
"/ 	c #E0FDFF",
"( 	c #899DA5",
"_ 	c #DDFBFF",
": 	c #4082B8",
"< 	c #B7D7EC",
"[ 	c #3E80B6",
"} 	c #1985B9",
"| 	c #1280B7",
"1 	c #0A7CB4",
"2 	c #0076B1",
"3 	c #0075B0",
"4 	c #3785AC",
"5 	c #95A0A6",
"6 	c #91A0A8",
"7 	c #8C9CA5",
"8 	c #3A7DB4",
"9 	c #B7D8EE",
"0 	c #AFD3EC",
"a 	c #4181B6",
"b 	c #1081B7",
"c 	c #D7EBFA",
"d 	c #CFE6F7",
"e 	c #CDE6F6",
"f 	c #D1E8F8",
"g 	c #0076B2",
"h 	c #F6FFFF",
"i 	c #93A0A5",
"j 	c #E7FEFF",
"k 	c #BBDEF4",
"l 	c #B5DAF1",
"m 	c #92C5E7",
"n 	c #52A2D8",
"o 	c #9ACBED",
"p 	c #4683B8",
"q 	c #0C7FB6",
"r 	c #77B7E2",
"s 	c #CEE6F7",
"t 	c #FAFFFF",
"u 	c #939FA5",
"v 	c #E9FEFF",
"w 	c #3F7AAB",
"x 	c #4182B8",
"y 	c #3D7EB4",
"z 	c #65B2E5",
"A 	c #67B4E7",
"B 	c #4382B6",
"C 	c #D7EBFB",
"D 	c #B0D7F2",
"E 	c #AFD6F2",
"F 	c #D1E9FB",
"G 	c #0077B8",
"H 	c #FEFFFF",
"I 	c #95A4B1",
"J 	c #EEFFFF",
"K 	c #4383B8",
"L 	c #7AC5F5",
"M 	c #1579AA",
"N 	c #0D80BB",
"O 	c #017CBD",
"P 	c #0077BD",
"Q 	c #0076BF",
"R 	c #4E7E88",
"S 	c #D88522",
"T 	c #CE8020",
"U 	c #C87B16",
"V 	c #407BAB",
"W 	c #4585B9",
"X 	c #F2993C",
"Y 	c #FFFB92",
"Z 	c #FFF793",
"` 	c #FFF797",
" .	c #FFF69B",
"..	c #FFF69E",
"+.	c #E09647",
"@.	c #FFF69A",
"#.	c #F4CD46",
"$.	c #F3CD49",
"%.	c #F2CD4B",
"&.	c #F1CD4B",
"*.	c #D8954C",
"=.	c #FFF69C",
"-.	c #F6DA68",
";.	c #F6DA6A",
">.	c #F6DB6B",
",.	c #D8974D",
"'.	c #FFFA9F",
").	c #FFEE8A",
"!.	c #FFEE8B",
"~.	c #FFEF8C",
"{.	c #FFEF8D",
"].	c #C78E48",
"^.	c #D59548",
"/.	c #D29042",
"(.	c #D08D3D",
"_.	c #CE8B37",
":.	c #CC8732",
"<.	c #C9852B",
"                  . + @ # @ $ @ ",
"                  + % % % % % % ",
"                  @ % & * = - = ",
"                  @ % ; > , ' ) ",
"    ! ~           { % ] ^ / ( _ ",
"    : < [     } | 1 2 3 4 5 6 7 ",
"! : 8 9 0 a   b c d e f g h i j ",
"~ k l m n o p q f r r s g t u v ",
"w x y z A B   b C D E F G H I J ",
"    K L B     M N O P Q R S T U ",
"    V W           X Y Z `  .....",
"                  +.@.#.$.%.&.&.",
"                  *.=.-.;.>.>.>.",
"                  ,.'.).!.~.{.{.",
"                  ].^./.(._.:.<.",
"                                "};
