/* XPM */
static const char *mini_move_xpm[] = {
"16 16 51 1",
" 	c None",
".	c #409EE9",
"+	c #3D9BE6",
"@	c #90DCFF",
"#	c #3996E1",
"$	c #8DD9FE",
"%	c #83CFFD",
"&	c #1574BF",
"*	c #8AD6FC",
"=	c #308AD5",
"-	c #85D1FB",
";	c #2C84CF",
">	c #80CCF8",
",	c #277EC9",
"'	c #7DC9F7",
")	c #1D78C3",
"!	c #6CBAE9",
"~	c #72BFE9",
"{	c #2277C1",
"]	c #79C5F5",
"^	c #67B3EF",
"/	c #78C4F4",
"(	c #71C0F1",
"_	c #5EB4E7",
":	c #57AFE3",
"<	c #48A1DB",
"[	c #54ACE1",
"}	c #53ABE0",
"|	c #52AAE0",
"1	c #50A9DF",
"2	c #3A95D4",
"3	c #61B7E6",
"4	c #1C6FBA",
"5	c #77C3F4",
"6	c #49AEE6",
"7	c #42A9E3",
"8	c #1769B4",
"9	c #3BB1EC",
"0	c #1363AE",
"a	c #1262AD",
"b	c #2CB3F3",
"c	c #0D5BA6",
"d	c #0D5CA7",
"e	c #1EB6FA",
"f	c #0956A1",
"g	c #13B8FE",
"h	c #02B2FE",
"i	c #10B7FE",
"j	c #05519C",
"k	c #0CB6FF",
"l	c #024D98",
"       .        ",
"      +@+       ",
"     #$%$#      ",
"    &&&*&&&     ",
"   =  &-&  =    ",
"  ;;  &>&  ;;   ",
" ,',,,)!),,,~,  ",
"{]^/(_:<[}|123{ ",
" 4544446444474  ",
"  88  898  88   ",
"   0  aba  0    ",
"    cddeddc     ",
"     fghif      ",
"      jkj       ",
"       l        ",
"                "};
