/* XPM */
static char *mini_unselect_xpm[] = {
"16 16 14 1",
" 	c None",
".	c #F1AF8A",
"+	c #ED9665",
"@	c #F8D6C2",
"#	c #E48E5D",
"$	c #CC7645",
"%	c #BE6939",
"&	c #AC5626",
"*	c #AB5422",
"=	c #B85E27",
"-	c #C5682D",
";	c #DF7E3C",
">	c #C0855C",
",	c #E98641",
"                ",
" .+@++@++@++@+. ",
" #@@@@@@@@@@@@# ",
" @@@@@@@@@@@@@@ ",
" $@@@@@@@@@@@@$ ",
" %@@@@@@@@@@@@% ",
" @@@@@@@@@@@@@@ ",
" &@@@@@@@@@@@@& ",
" *@@@@@@@@@@@@* ",
" @@@@@@@@@@@@@@ ",
" =@@@@@@@@@@@@= ",
" -@@@@@@@@@@@@- ",
" @@@@@@@@@@@@@@ ",
" ;@@@@@@@@@@@@; ",
" >,@,,@,,@,,@,> ",
"                "};
