/* XPM */
static const char *mini_copy_xpm[] = {
"16 16 107 2",
"  	c None",
". 	c #0F6DFF",
"+ 	c #227DFF",
"@ 	c #2480FF",
"# 	c #2280FF",
"$ 	c #2380FF",
"% 	c #237EFF",
"& 	c #1B7AFF",
"* 	c #0770FF",
"= 	c #0056EE",
"- 	c #1F7CFF",
"; 	c #FFFFFF",
"> 	c #E7F3FF",
", 	c #E8F3FF",
"' 	c #E5F2FF",
") 	c #DEEFFF",
"! 	c #E2F3FF",
"~ 	c #73BCFF",
"{ 	c #257AFF",
"] 	c #0058F1",
"^ 	c #ECF5FF",
"/ 	c #C2DEFF",
"( 	c #C3E0FF",
"_ 	c #BCDCFF",
": 	c #AAD3FF",
"< 	c #F2F9FF",
"[ 	c #BFE2FF",
"} 	c #80C1FF",
"| 	c #0C74FF",
"1 	c #217DFF",
"2 	c #EFF6FF",
"3 	c #CAE2FF",
"4 	c #CAE3FF",
"5 	c #C3DEFF",
"6 	c #B4D9FF",
"7 	c #D3E9FF",
"8 	c #E6F3FF",
"9 	c #EFF9FF",
"0 	c #3391FF",
"a 	c #F0F7FF",
"b 	c #CFE5FF",
"c 	c #CEE4FF",
"d 	c #C8E2FF",
"e 	c #BEDCFF",
"f 	c #88C3FF",
"g 	c #7DC0FF",
"h 	c #77BBFF",
"i 	c #3EA1FF",
"j 	c #3E9DFF",
"k 	c #2C96FF",
"l 	c #207DFF",
"m 	c #F2F7FF",
"n 	c #D4E7FF",
"o 	c #C5E0FF",
"p 	c #7CBEFF",
"q 	c #FEFFFF",
"r 	c #D5E7FF",
"s 	c #D2E6FF",
"t 	c #CDE4FF",
"u 	c #78BAFF",
"v 	c #1D7BFF",
"w 	c #F1F7FF",
"x 	c #D9E9FF",
"y 	c #DBEAFF",
"z 	c #D7E7FF",
"A 	c #1E79FF",
"B 	c #1F78FF",
"C 	c #EAF5FF",
"D 	c #B2D6FF",
"E 	c #A3D1FF",
"F 	c #DFEFFF",
"G 	c #257DFF",
"H 	c #2376FF",
"I 	c #D9FFF7",
"J 	c #76BBFF",
"K 	c #BEDEFF",
"L 	c #247EFF",
"M 	c #176EFF",
"N 	c #E9F3FF",
"O 	c #E3F1FF",
"P 	c #E2F0FF",
"Q 	c #E5F0FF",
"R 	c #E6F2FF",
"S 	c #76B9FF",
"T 	c #C7E3FF",
"U 	c #BDDBFF",
"V 	c #237CFF",
"W 	c #126BFF",
"X 	c #146AFF",
"Y 	c #0E66FF",
"Z 	c #0D66FF",
"` 	c #D2E5FF",
" .	c #CBE2FF",
"..	c #217BFF",
"+.	c #EBF7FF",
"@.	c #2277FF",
"#.	c #DBFFF4",
"$.	c #2572FF",
"%.	c #116BFF",
"&.	c #E7F1FF",
"*.	c #ECF4FF",
"=.	c #1F72FF",
"-.	c #0864FF",
";.	c #0C66FF",
">.	c #0F65FF",
",.	c #0A65FF",
"'.	c #1E71FF",
". + @ # $ % & * =               ",
"- ; > , ' ) ! ~ { ]             ",
"+ ^ / ( _ : < [ } |             ",
"1 2 3 4 5 6 7 8 9 0             ",
"1 a b c d e f g h h i j k * =   ",
"l m n n b o p q > , ' ) ! ~ { ] ",
"- a r n s t u ^ / ( _ : < [ } | ",
"v w x y x z h 2 3 4 5 6 7 8 9 A ",
"B C x y x z h a b c d e D E F G ",
"H I x y x z J m n n b o K 6 ' L ",
"M N O P Q R S a r n s t T U > V ",
"W X Y Z Y Z v w x y x z `  .w ..",
"            B C x y x z `  .+.@.",
"            H I x y x z `  .#.$.",
"            %.N O P Q R R &.*.=.",
"            -.;.Y Z Y Z Z >.,.'."};
