/* XPM */
static const char *mini_replace_xpm[] = {
"16 16 97 2",
"  	c None",
". 	c #6CBC60",
"+ 	c #69B95E",
"@ 	c #66B55B",
"# 	c #63B158",
"$ 	c #6EBF62",
"% 	c #87C87C",
"& 	c #A1D396",
"* 	c #AAD8A0",
"= 	c #A7D69E",
"- 	c #99CE90",
"; 	c #78BA70",
"> 	c #58A34F",
", 	c #6DBF62",
"' 	c #8CCA82",
") 	c #ABD8A1",
"! 	c #A2D499",
"~ 	c #A6D59C",
"{ 	c #A4D49B",
"] 	c #9BD092",
"^ 	c #9ED196",
"/ 	c #79B871",
"( 	c #509947",
"_ 	c #85C77B",
": 	c #A9D7A0",
"< 	c #A0D197",
"[ 	c #81C077",
"} 	c #7EBC75",
"| 	c #97CC8E",
"1 	c #9BCF93",
"2 	c #98CE90",
"3 	c #69AB61",
"4 	c #6ABA5F",
"5 	c #9DD194",
"6 	c #A6D59D",
"7 	c #5DAA53",
"8 	c #59A650",
"9 	c #56A14D",
"0 	c #529C4A",
"a 	c #90C989",
"b 	c #8CC885",
"c 	c #84C07D",
"d 	c #43893C",
"e 	c #66B65C",
"f 	c #63B259",
"g 	c #60AE56",
"h 	c #5CA953",
"i 	c #4E9746",
"j 	c #6FAF67",
"k 	c #8FC988",
"l 	c #3E8438",
"m 	c #55A04C",
"n 	c #499142",
"o 	c #6AAB63",
"p 	c #8AC783",
"q 	c #88C582",
"r 	c #3A7E34",
"s 	c #549F4B",
"t 	c #509A48",
"u 	c #499141",
"v 	c #458C3E",
"w 	c #84C17C",
"x 	c #7EC177",
"y 	c #77B771",
"z 	c #367930",
"A 	c #539E4B",
"B 	c #6CAE63",
"C 	c #68AA60",
"D 	c #489040",
"E 	c #61A35A",
"F 	c #87C581",
"G 	c #85C47E",
"H 	c #82C27C",
"I 	c #54964E",
"J 	c #539D4A",
"K 	c #6AAD63",
"L 	c #8FC987",
"M 	c #8BC785",
"N 	c #89C682",
"O 	c #87C47F",
"P 	c #7CBF75",
"Q 	c #82C27B",
"R 	c #5B9D55",
"S 	c #31732C",
"T 	c #4E9846",
"U 	c #66A95F",
"V 	c #8BC683",
"W 	c #85C37E",
"X 	c #74B56D",
"Y 	c #52954D",
"Z 	c #468D3F",
"` 	c #5EA157",
" .	c #5A9E55",
"..	c #3B7F35",
"+.	c #377B31",
"@.	c #33762E",
"#.	c #3E8337",
"                                ",
"                                ",
"            . + @ #             ",
"        $ % & * = - ; >         ",
"      , ' ) ! ~ { ] ^ / (       ",
"      _ : = < [ } | 1 2 3       ",
"    4 5 6 1 7 8 9 0 a b c d     ",
"    e f g h       i j k b l     ",
"            m     n o p q r     ",
"          s t   u v w x y z     ",
"        A B C D E F G H I       ",
"      J K L M N O P Q R S       ",
"      T U V F W H X Y S         ",
"        Z `  ...+.@.            ",
"          #.r                   ",
"            z                   "};
