/* XPM */
static const char *mini_borderize_xpm[] = {
"16 16 95 2",
"  	c None",
". 	c #8CB3E6",
"+ 	c #8AB2E5",
"@ 	c #89B2E5",
"# 	c #86AFE5",
"$ 	c #86AEE5",
"% 	c #85ACE3",
"& 	c #83ABE3",
"* 	c #80A9E3",
"= 	c #7FA7E1",
"- 	c #7CA5E1",
"; 	c #A6C4EC",
"> 	c #A5C4EB",
", 	c #A4C2EB",
"' 	c #A3C2EB",
") 	c #A2C0EA",
"! 	c #A0BFEA",
"~ 	c #9FBEEA",
"{ 	c #9EBCE8",
"] 	c #9CBBE8",
"^ 	c #9AB9E8",
"/ 	c #78A2DE",
"( 	c #A5C3EB",
"_ 	c #A2C0EB",
": 	c #A1BFEA",
"< 	c #A0BEEA",
"[ 	c #9EBDE9",
"} 	c #9DBBE8",
"| 	c #9BBAE8",
"1 	c #99B8E7",
"2 	c #97B6E6",
"3 	c #759DDE",
"4 	c #A2C1EB",
"5 	c #9DBCE8",
"6 	c #98B6E6",
"7 	c #96B5E6",
"8 	c #94B3E5",
"9 	c #709ADC",
"0 	c #9CBAE8",
"a 	c #98B7E6",
"b 	c #96B6E6",
"c 	c #94B4E5",
"d 	c #93B3E4",
"e 	c #91B1E4",
"f 	c #6C96DA",
"g 	c #81AAE3",
"h 	c #9EBCE9",
"i 	c #95B4E6",
"j 	c #94B3E4",
"k 	c #92B1E4",
"l 	c #90AFE3",
"m 	c #8FAEE3",
"n 	c #6A92D9",
"o 	c #7FA6E1",
"p 	c #91AFE4",
"q 	c #8DADE3",
"r 	c #8BABE2",
"s 	c #668ED8",
"t 	c #7BA2E1",
"u 	c #92B2E4",
"v 	c #8FAFE3",
"w 	c #8CACE2",
"x 	c #8AAAE1",
"y 	c #89A9E1",
"z 	c #628CD6",
"A 	c #779FDE",
"B 	c #95B4E5",
"C 	c #8EAEE3",
"D 	c #8DACE2",
"E 	c #8BAAE1",
"F 	c #87A7E0",
"G 	c #86A6DF",
"H 	c #5F89D5",
"I 	c #739BDD",
"J 	c #8DACE3",
"K 	c #8BABE1",
"L 	c #88A8E1",
"M 	c #86A7E0",
"N 	c #85A5DF",
"O 	c #84A3DF",
"P 	c #5D86D4",
"Q 	c #6F98DC",
"R 	c #84A4DF",
"S 	c #83A3DE",
"T 	c #81A2DE",
"U 	c #5A85D4",
"V 	c #6B94DA",
"W 	c #6892D9",
"X 	c #6690D8",
"Y 	c #648ED8",
"Z 	c #6189D5",
"` 	c #5D86D5",
" .	c #5B85D4",
"..	c #5983D2",
"+.	c #5883D2",
"                                ",
"                                ",
"    . . . + @ # $ % & * = -     ",
"    . ; > , ' ) ! ~ { ] ^ /     ",
"    @ ( ' _ : < [ } | 1 2 3     ",
"    # 4 ) < [ 5 | 1 6 7 8 9     ",
"    % ! ~ 5 0 ^ a b c d e f     ",
"    g h ] ^ 1 2 i j k l m n     ",
"    o | 1 2 7 8 k p m q r s     ",
"    t a 7 c u e v q w x y z     ",
"    A B d k l C D E y F G H     ",
"    I k p m J K y L M N O P     ",
"    Q v q r x L F N R S T U     ",
"    V W X Y z Z H `  .U ..+.    ",
"                                ",
"                                "};
