/* XPM */
static const char *mini_randomize_xpm[] = {
"16 16 7 1",
" 	c None",
".	c #000000",
"+	c #E1EBFF",
"@	c #001540",
"#	c #C1D5FF",
"$	c #A1BFFF",
"%	c #81AAFF",
"       ..       ",
"     .++++.     ",
"   .++++++++.   ",
" .++++++.+++++. ",
".+++++++@+++++#.",
".###++++++++#$$.",
".#####++++#$%@$.",
".######+#$%%%@$.",
".#####@#$@%%%%$.",
".###@#@#$@%@%%$.",
".#@#@###$%%@%@$.",
".#@#####$%%%%@$.",
" .######$@%%%%. ",
"   .####$@%%.   ",
"     .##$%.     ",
"       ..       "};
