/* XPM */
static const char *mini_borderize_xpm[] = {
"16 16 2 1",
" 	c None",
".	c #26B48D",
"                ",
" .... .... .... ",
" .... .... .... ",
" ....      .... ",
" ...        ... ",
"                ",
" ..          .. ",
" ..          .. ",
" ..          .. ",
" ..          .. ",
"                ",
" ...        ... ",
" ....      .... ",
" .... .... .... ",
" .... .... .... ",
"                "};
