/* XPM */
static const char *mini_remote_xpm[] = {
"16 16 98 2",
"  	c None",
". 	c #1868AE",
"+ 	c #599ECD",
"@ 	c #CBE6F4",
"# 	c #E5F2FA",
"$ 	c #1765A9",
"% 	c #1660A2",
"& 	c #CDE9F6",
"* 	c #9DCEED",
"= 	c #81C1E7",
"- 	c #CEE9F6",
"; 	c #155C9C",
"> 	c #307EB8",
", 	c #A0D5EE",
"' 	c #7DC1E7",
") 	c #78BEE6",
"! 	c #7EC1E7",
"~ 	c #A4D7EE",
"{ 	c #155B9A",
"] 	c #135895",
"^ 	c #4083B5",
"/ 	c #ADD8EB",
"( 	c #D1EBF6",
"_ 	c #D7EEF9",
": 	c #89C9EC",
"< 	c #75BFE6",
"[ 	c #73BEE6",
"} 	c #77C0E7",
"| 	c #95D3EE",
"1 	c #135894",
"2 	c #4C90BD",
"3 	c #CFECF8",
"4 	c #98D2EE",
"5 	c #7AC3E8",
"6 	c #72BFE6",
"7 	c #75C1E7",
"8 	c #6EBDE6",
"9 	c #6FBEE6",
"0 	c #86CAEB",
"a 	c #D3EDF8",
"b 	c #BDE2F1",
"c 	c #6CACCE",
"d 	c #12538D",
"e 	c #104C83",
"f 	c #B2DFF0",
"g 	c #77C1E9",
"h 	c #69B8E6",
"i 	c #6FBCE8",
"j 	c #88C9EC",
"k 	c #BCE4F6",
"l 	c #7CB7D6",
"m 	c #0E487D",
"n 	c #99D7EE",
"o 	c #5AADDE",
"p 	c #4EA5DB",
"q 	c #47A1D9",
"r 	c #409ED8",
"s 	c #3B9BD7",
"t 	c #3D9CD7",
"u 	c #439FD9",
"v 	c #4AA3DA",
"w 	c #59ADDE",
"x 	c #ACDFF1",
"y 	c #0E477C",
"z 	c #0D4273",
"A 	c #49BEDE",
"B 	c #3595CD",
"C 	c #318CC9",
"D 	c #3392CC",
"E 	c #4FC2E2",
"F 	c #0D4375",
"G 	c #0A3965",
"H 	c #2B84BD",
"I 	c #33A5D2",
"J 	c #2A89C2",
"K 	c #277FBC",
"L 	c #267CBB",
"M 	c #267BBA",
"N 	c #277DBB",
"O 	c #2883BE",
"P 	c #2F99CB",
"Q 	c #309BCF",
"R 	c #0B3B69",
"S 	c #1765A6",
"T 	c #238DCA",
"U 	c #2590CA",
"V 	c #2795CB",
"W 	c #2693CA",
"X 	c #2796CC",
"Y 	c #248EC9",
"Z 	c #1D7DC2",
"` 	c #0E3F6D",
" .	c #072D50",
"..	c #09345C",
"+.	c #09355F",
"@.	c #093661",
"#.	c #09345E",
"$.	c #083259",
"                                ",
"                                ",
"                                ",
"              . . .             ",
"            + @ # @ + $         ",
"          % & * = * - %         ",
"      ; ; > , ' ) ! ~ {         ",
"  ] ^ / ( _ : < [ } | 1 ]       ",
"  2 3 4 5 6 7 8 8 9 0 a b c d   ",
"e f g h h h h h h h h i j k l e ",
"m n o p q r s s s s t u v w x y ",
"z A B C C C C C C C C C C D E F ",
"G H I J K L M M M M M N O P Q R ",
"  G S T U V W W W W W X Y Z `   ",
"     ...+.@.@.@.@.@.@.@.#.$.    ",
"                                "};
