/* XPM */
static const char *mini_draw_xpm[] = {
"16 16 59 1",
" 	c None",
".	c #C49A1D",
"+	c #BD9014",
"@	c #DBC175",
"#	c #EEE0A9",
"$	c #B98A16",
"%	c #F2E7BD",
"&	c #E7CD62",
"*	c #B58417",
"=	c #DBC174",
"-	c #F3E7BD",
";	c #F0DB71",
">	c #F3E8BE",
",	c #F8E87E",
"'	c #D1AC3E",
")	c #D2AE40",
"!	c #AE7B1A",
"~	c #DAC073",
"{	c #F3E9BE",
"]	c #D5B344",
"^	c #F4E9BF",
"/	c #DABB4B",
"(	c #B2AC98",
"_	c #C0981E",
":	c #ECDA92",
"<	c #E2C656",
"[	c #B2AC9A",
"}	c #B2AC9E",
"|	c #B2AC9B",
"1	c #B4A57C",
"2	c #B98B1A",
"3	c #DDBE4F",
"4	c #C19732",
"5	c #83A1A7",
"6	c #919EA9",
"7	c #CFD2CD",
"8	c #FCF2D3",
"9	c #F2E5C0",
"0	c #B39F6E",
"a	c #8095A4",
"b	c #96BAD4",
"c	c #85A0B9",
"d	c #658AB4",
"e	c #7992AC",
"f	c #728492",
"g	c #7F97A5",
"h	c #809BAF",
"i	c #86A9C6",
"j	c #89AFD6",
"k	c #799DC9",
"l	c #5B8CD5",
"m	c #4D71A6",
"n	c #6C859C",
"o	c #627C97",
"p	c #597493",
"q	c #516C90",
"r	c #4B668C",
"s	c #506D9A",
"t	c #B2A16E",
"                ",
"              .+",
"             @#$",
"            @%&*",
"           =-;* ",
"          =>,'  ",
"         =>,)!  ",
"        ~{,]!   ",
"       ~^,/!    ",
"     (_:,<!     ",
"   [}|1234      ",
"  567890!       ",
"  abcdef        ",
"ghijklm         ",
"nopqrs          ",
"   t            "};
