/* XPM */
static const char *mini_rotate_xpm[] = {
"16 16 105 2",
"  	c None",
". 	c #409EE9",
"+ 	c #3C9AE5",
"@ 	c #3895E0",
"# 	c #89D5FC",
"$ 	c #91DEFE",
"% 	c #83D3FB",
"& 	c #6ABFF3",
"* 	c #43A0E7",
"= 	c #3A94DC",
"- 	c #64B7EC",
"; 	c #7BCAF6",
"> 	c #83D0F9",
", 	c #84D0FA",
"' 	c #75C1F6",
") 	c #81CDF8",
"! 	c #338ED9",
"~ 	c #92DEFE",
"{ 	c #82CEFB",
"] 	c #7DC9F9",
"^ 	c #80CDF8",
"/ 	c #3C96DC",
"( 	c #4097DB",
"_ 	c #7ECBF7",
": 	c #79C5F7",
"< 	c #78C4F6",
"[ 	c #7ECAF8",
"} 	c #7FCBF8",
"| 	c #6FBBF2",
"1 	c #7AC6F6",
"2 	c #2E87D2",
"3 	c #4099DE",
"4 	c #60B4EA",
"5 	c #79C6F5",
"6 	c #5CAAE8",
"7 	c #388ED3",
"8 	c #76C4F3",
"9 	c #73BFF4",
"0 	c #76C3F4",
"a 	c #54A6E0",
"b 	c #3389D0",
"c 	c #287FCA",
"d 	c #76C2F4",
"e 	c #4298DA",
"f 	c #3689CD",
"g 	c #61B0E6",
"h 	c #68B6ED",
"i 	c #65B4E9",
"j 	c #3589CC",
"k 	c #2277C2",
"l 	c #2073BE",
"m 	c #3B8ECE",
"n 	c #4CAEE7",
"o 	c #3FA5E1",
"p 	c #3588CA",
"q 	c #1666B1",
"r 	c #267CC1",
"s 	c #30AFEF",
"t 	c #1BA8EE",
"u 	c #349CDB",
"v 	c #1E77BF",
"w 	c #2E86CC",
"x 	c #0F5EA9",
"y 	c #1F6EB5",
"z 	c #2F91D1",
"A 	c #1CB6F9",
"B 	c #05B0FC",
"C 	c #22AEF0",
"D 	c #176FB8",
"E 	c #1199E3",
"F 	c #22AFF3",
"G 	c #2A94D7",
"H 	c #1F78C1",
"I 	c #1C6EB9",
"J 	c #5EC8F8",
"K 	c #0B58A3",
"L 	c #54C2F9",
"M 	c #08B4FF",
"N 	c #03B3FF",
"O 	c #18B0F6",
"P 	c #126BB4",
"Q 	c #1469B2",
"R 	c #1BB1F6",
"S 	c #05B2FE",
"T 	c #07B3FE",
"U 	c #14B8FE",
"V 	c #22BCFE",
"W 	c #02B1FE",
"X 	c #33C1FE",
"Y 	c #06529D",
"Z 	c #2CBBFA",
"` 	c #1AA9ED",
" .	c #1888CD",
"..	c #0959A4",
"+.	c #1166B0",
"@.	c #188DD4",
"#.	c #13A7EF",
"$.	c #10B4FB",
"%.	c #1ABAFF",
"&.	c #00B2FF",
"*.	c #2ABFFF",
"=.	c #105FAA",
"-.	c #034E99",
";.	c #024D98",
">.	c #28BEFF",
"                      .         ",
"                      + +       ",
"  . .           @ @ @ @ # @     ",
"+ $ % & *     = - ; > , ' ) !   ",
"@ ~ { ] ^ / ( _ : < [ } | 1 2   ",
"  3 4 5 6 7 8 9 0 a b c d c     ",
"      e f g h i j k   k k       ",
"      l m n o p l               ",
"    q r s t u v w     k k       ",
"x y z A B C D E F G H I J I     ",
"K L M N O P Q R S T U V W X q   ",
"Y Z `  ...    +.@.#.$.%.&.*.=.  ",
"-.;.;.;.            K K >.K     ",
"                      Y Y       ",
"                                ",
"                                "};
