/* XPM */
static char * mini_fill_xpm[] = {
"16 16 103 2",
"  	c None",
". 	c #4884C2",
"+ 	c #427DBD",
"@ 	c #80ABD2",
"# 	c #4C81BD",
"$ 	c #4680BE",
"% 	c #7BA5CF",
"& 	c #4679B7",
"* 	c #3F77B7",
"= 	c #6E96C7",
"- 	c #3C6EAF",
"; 	c #738BAE",
"> 	c #B9C0C7",
", 	c #376DB0",
"' 	c #5F87BF",
") 	c #3463A9",
"! 	c #9CAAC0",
"~ 	c #C8C8C8",
"{ 	c #D4D5D7",
"] 	c #3B6DAD",
"^ 	c #2C5DA5",
"/ 	c #2757A1",
"( 	c #D5DBE4",
"_ 	c #A8B2BA",
": 	c #AAB9C6",
"< 	c #A1B6C6",
"[ 	c #93AFC3",
"} 	c #C7C7C7",
"| 	c #D7D7D7",
"1 	c #ECECEC",
"2 	c #7D97BD",
"3 	c #BFC6D0",
"4 	c #7690B8",
"5 	c #E4E4E4",
"6 	c #EDEDED",
"7 	c #98A5B0",
"8 	c #ACC6D9",
"9 	c #A6C4DB",
"0 	c #83A6C2",
"a 	c #C6C6C6",
"b 	c #DADADA",
"c 	c #A5B3C8",
"d 	c #7F97BB",
"e 	c #A9B6CC",
"f 	c #E5E5E5",
"g 	c #E3E3E3",
"h 	c #BFBFBF",
"i 	c #82919D",
"j 	c #89AAC2",
"k 	c #8EB7D7",
"l 	c #C5C5C5",
"m 	c #F1F1F1",
"n 	c #DCDCDC",
"o 	c #D9D9D9",
"p 	c #EBEBEB",
"q 	c #B9B9B9",
"r 	c #B7B7B7",
"s 	c #72828F",
"t 	c #7EACCE",
"u 	c #6898BD",
"v 	c #D3D3D3",
"w 	c #E9E9E9",
"x 	c #DEDEDE",
"y 	c #DDDDDD",
"z 	c #D4D4D4",
"A 	c #D1D1D1",
"B 	c #B6B6B6",
"C 	c #909090",
"D 	c #727272",
"E 	c #6999BE",
"F 	c #6CA6D1",
"G 	c #B2B2B2",
"H 	c #CBCBCB",
"I 	c #F0F0F0",
"J 	c #EEEEEE",
"K 	c #EAEAEA",
"L 	c #D8D8D8",
"M 	c #D2D2D2",
"N 	c #D0D0D0",
"O 	c #C0C0C0",
"P 	c #949494",
"Q 	c #717171",
"R 	c #5E93BC",
"S 	c #568FBA",
"T 	c #A4A4A4",
"U 	c #C3C3C3",
"V 	c #E7E7E7",
"W 	c #DBDBDB",
"X 	c #CFCFCF",
"Y 	c #9A9A9A",
"Z 	c #548EBA",
"` 	c #3B82B6",
" .	c #969696",
"..	c #BABABA",
"+.	c #E0E0E0",
"@.	c #ABABAB",
"#.	c #878787",
"$.	c #B1B1B1",
"%.	c #ACACAC",
"&.	c #707070",
"*.	c #7A7A7A",
"=.	c #9F9F9F",
"-.	c #6F6F6F",
"            . +                 ",
"          . @ #                 ",
"          $ % &                 ",
"          * = - ;               ",
"        > , ' ) !               ",
"      ~ { ] ^ / ( _ : < [       ",
"    } | 1 2 3 4 5 6 7 8 9 0     ",
"  a | 1 b c d e f g h i j k     ",
"l | m n o n p g n | q r s t u   ",
"h v w x y 1 p o z A B C D E F   ",
"  G H I J K L M N O P Q   R S   ",
"    T U V W A X N Y D     Z `   ",
"       ...+.v b @.Q             ",
"        #.$.f %.&.              ",
"          *.=.-.                ",
"                                "};
