/* XPM */
static const char *moveable_xpm[] = {
/* columns rows colors chars-per-pixel */
"32 32 5 1 ",
"  c #010101",
". c gray2",
"X c magenta",
"o c #FBFBFB",
"O c white",
/* pixels */
"XXXXXXXXXXXXXXXXXXXXXXXXXXXXXXXX",
"XXXXXXXXXXXXXXXXXXXXXXXXXXXXXXXX",
"XXXXXXXXXXXXXXXX  XXXXXXXXXXXXXX",
"XXXXXXXXXXXXXX  OO  .XXXXXXXXXXX",
"XXXXXXXXXXX   OOOOOO   XXXXXXXXX",
"XXXXXXXXXX OOOOOOOOOOOO XXXXXXXX",
"XXXXXXXXXX   OOOOOOOO   XXXXXXXX",
"XXXXXXXXXX OO  OOOO  Oo XXXXXXXX",
"XXXXXXXXXX OOOO    OOOO XXXXXXXX",
"XXXXXXXXXX OOOOOO OOOOO XXXXXXXX",
"XXXXXXXXXX OOOOOO OOOOO XXXXXXXX",
"XXXXXXXXXX OOOOOO OOOOO XXXXXXXX",
"XXXXXXXXXX OOOOOO OOOOO XXXXXXXX",
"XXXXXXXXXXX  OOOO OOO  XXXXXXXXX",
"XXXXXXXXXXXXX  OO O  XXXXXXXXXXX",
"XXXXXXXXXXXXXXX    XXXXXXXXXXXXX",
"XXXXXXXXXXXXXXXXXXXXXXXXXXXXXXXX",
"XXXXXXXXXXXXX XXXXXXXXXXXXXXXXXX",
"XXXXXXXXXXXX O XXXXXXXXXXXXXXXXX",
"XXXXXXXXXXX OOO XXXXXXXXXXXXXXXX",
"XXXXXXXXXXX  O  XXXXXXXXXXXXXXXX",
"XXXXXXXXX XX O XX XXXXXXXXXXXXXX",
"XXXXXXXX O  OOO  O XXXXXXXXXXXXX",
"XXXXXXX OOOOOOOOOOO XXXXXXXXXXXX",
"XXXXXXXX O  OOO  O XXXXXXXXXXXXX",
"XXXXXXXXX XX O XX XXXXXXXXXXXXXX",
"XXXXXXXXXXXX O XXXXXXXXXXXXXXXXX",
"XXXXXXXXXXX OOO XXXXXXXXXXXXXXXX",
"XXXXXXXXXXXX O XXXXXXXXXXXXXXXXX",
"XXXXXXXXXXXXX XXXXXXXXXXXXXXXXXX",
"XXXXXXXXXXXXXXXXXXXXXXXXXXXXXXXX",
"XXXXXXXXXXXXXXXXXXXXXXXXXXXXXXXX"
};
