/* XPM */
static const char *nologout_zone_xpm[] = {
/* columns rows colors chars-per-pixel */
"16 16 110 2 ",
"   c #87581D",
".  c #8F5F21",
"X  c #9A6A2B",
"o  c #9C6B2C",
"O  c #886534",
"+  c #976E35",
"@  c #A4722E",
"#  c #AC7935",
"$  c #AC7B38",
"%  c #B07E3A",
"&  c #B18106",
"*  c #BB8436",
"=  c #B1803C",
"-  c #B89B3E",
";  c #CA9000",
":  c #CB9200",
">  c #C99002",
",  c #CA9102",
"<  c #CC9300",
"1  c #CD9502",
"2  c #CD9702",
"3  c #C89207",
"4  c #C09905",
"5  c #C5920D",
"6  c #C89208",
"7  c #E4B706",
"8  c #E5B909",
"9  c #C39F24",
"0  c #C5A226",
"q  c #CFA121",
"w  c #D1B227",
"e  c #C6AF3A",
"r  c #DCCC17",
"t  c #DAC92A",
"y  c #EBC222",
"u  c #EBC42A",
"i  c #E9C32D",
"p  c #EBC52F",
"a  c #ECC733",
"s  c #ECC839",
"d  c #ECC83B",
"f  c #BE8C45",
"g  c #A39A5C",
"h  c #BEAB43",
"j  c #BCAB49",
"k  c #B6A552",
"l  c #B5A956",
"z  c #B2A45B",
"x  c #B5AA5C",
"c  c #AEA96D",
"v  c #AAA97D",
"b  c #C08C42",
"n  c #C79246",
"m  c #CA974D",
"M  c #D49E53",
"N  c #D6A256",
"B  c #CAB659",
"V  c #DBAF6E",
"C  c #DFB77D",
"Z  c #E0D14C",
"A  c #F0D361",
"S  c #F0D362",
"D  c #F0D566",
"F  c #F0D567",
"G  c #F1D66B",
"H  c #EFD97E",
"J  c #F1D97C",
"K  c #F2DB7D",
"L  c #EDE073",
"P  c #ECE377",
"I  c #EEE37E",
"U  c #A3BDAA",
"Y  c #E2BC86",
"T  c #C2B6A0",
"R  c #D0C789",
"E  c #DDD483",
"W  c #E4C18F",
"Q  c #F3DC85",
"!  c #F3DD85",
"~  c #F4DE86",
"^  c #F4DE89",
"/  c #F4DF8B",
"(  c #F4DF8E",
")  c #EDE181",
"_  c #EEE380",
"`  c #F5E090",
"'  c #F5E192",
"]  c #F5E297",
"[  c #F5E39B",
"{  c #F2EB9D",
"}  c #F2EA9F",
"|  c #CDD3B5",
" . c #F6E5A3",
".. c #F2EAA0",
"X. c #F7E7AA",
"o. c #F4ECA9",
"O. c #F5EEB2",
"+. c #F5EEB3",
"@. c #F5EEB5",
"#. c #F8EAB3",
"$. c #F9EDBD",
"%. c #F6F0BD",
"&. c #F7F1BE",
"*. c #F8EDC0",
"=. c #F8F2C4",
"-. c #F9F4CC",
";. c #F9F6D5",
":. c #FBF8DF",
">. c #FBF7EF",
",. c None",
/* pixels */
",.,.,.,.,.,.,.,.,.,.,.,.,.,.,.,.",
",.,.,.,.,.,.,.k 0 0 g O     ,.,.",
",.,.,.,.,.,.1 p $.[ 7 4 >.*   ,.",
",.x 3 ; ; ; J -.:.%.@.T Y @ ,.,.",
",.j ! ^ ~ X.$.} =._ L + W . ,.,.",
",.e ! u u F / +.@.I Z # V   ,.,.",
"v w ^ p a F ' %...P E b C   ,.,.",
"c H S s d G ] ;.o.{ R N n   ,.,.",
"l ! u y A ] #.) t r q N %   ,.,.",
"h K ' `  .8 2 B | U & M X ,.,.,.",
"z 5 ; ; 6 - ,.,.,.,.o N   ,.,.,.",
",.,.,.,.,.,.,.,.,.  = N   ,.,.,.",
",.,.,.,.,.,.,.,.,.  m N   ,.,.,.",
",.,.,.,.,.,.,.,.,.  N f   ,.,.,.",
",.,.,.,.,.,.,.,.,.  N $ ,.,.,.,.",
",.,.,.,.,.,.,.,.,.      ,.,.,.,."
};
