/* XPM */
static const char *nopvp_zone_xpm[] = {
/* columns rows colors chars-per-pixel */
"16 16 109 2 ",
"   c #321D16",
".  c #87581D",
"X  c #8F5F21",
"o  c #9A6A2B",
"O  c #9C6B2C",
"+  c #886534",
"@  c #976E35",
"#  c #A4722E",
"$  c #AC7935",
"%  c #AC7B38",
"&  c #B07E3A",
"*  c #BB8436",
"=  c #B1803C",
"-  c #BE8C45",
";  c #C08C42",
":  c #C79246",
">  c #CA974D",
",  c #D49E53",
"<  c #D6A256",
"1  c #DBAF6E",
"2  c #DFB77D",
"3  c #BF1499",
"4  c #BF169B",
"5  c #BE139C",
"6  c #BA1B9B",
"7  c #DA0BAF",
"8  c #DB0DB6",
"9  c #E300AE",
"0  c #E900B3",
"q  c #E800BA",
"w  c #F500BB",
"e  c #F200BC",
"r  c #F700BD",
"t  c #F400BE",
"y  c #F700BF",
"u  c #F800BC",
"i  c #FA00BD",
"p  c #C855B2",
"a  c #F600C0",
"s  c #F200C4",
"d  c #F600C6",
"f  c #FF01C4",
"g  c #FE00C5",
"h  c #F012CB",
"j  c #FF04D1",
"k  c #FF11D6",
"l  c #E134C2",
"z  c #FF2DDA",
"x  c #FF2CDC",
"c  c #F849DA",
"v  c #FF44E0",
"b  c #FF44E1",
"n  c #FF46E1",
"m  c #FF49E1",
"M  c #FF4DE2",
"N  c #FF4EE2",
"B  c #FF51E3",
"V  c #FF54E4",
"C  c #FF59E3",
"Z  c #FF5BE4",
"A  c #FF5EE7",
"S  c #FF79E9",
"D  c #FF7AE9",
"F  c #FF7FE8",
"G  c #FF7EE9",
"H  c #B089B1",
"J  c #E2BC86",
"K  c #C0B4A0",
"L  c #E4C18F",
"P  c #E087D6",
"I  c #FF82EA",
"U  c #FF8BEB",
"Y  c #FF8DEA",
"T  c #FF90EC",
"R  c #FF92EC",
"E  c #FF97ED",
"W  c #FF99EC",
"Q  c #FF98ED",
"!  c #FF9AED",
"~  c #FF98EE",
"^  c #FF9AEE",
"/  c #FF9CEE",
"(  c #FF9CEF",
")  c #FF9FEE",
"_  c #FFA0EF",
"`  c #FFA8EF",
"'  c #FFA2F0",
"]  c #FFA6F0",
"[  c #FFA7F0",
"{  c #FFAEF2",
"}  c #FFB2F2",
"|  c #FFB3F2",
" . c #FFB4F2",
".. c #FFB5F2",
"X. c #FFBAF3",
"o. c #FFBCF4",
"O. c #FFC0F5",
"+. c #FFC1F5",
"@. c #FFC3F5",
"#. c #FFC4F5",
"$. c #FFC6F5",
"%. c #FFC9F6",
"&. c #FFC9F7",
"*. c #FFCDF7",
"=. c #FFD3F7",
"-. c #FFDBFA",
";. c #FBF7EF",
":. c #FFE3FB",
">. c None",
/* pixels */
">.>.>.>.>.>.>.>.>.>.>.>.>.>.>.>.",
">.>.>.>.>.>.>.6 8 7 4 + . . >.>.",
">.>.>.>.>.>.s m #.[ x h ;.* . >.",
">.u u r r a Y =.:.&.#.K J # >.>.",
">.g E ^ ^  .#.| *.( R @ L X >.>.",
">.j ^ N N G ( +.+.^ A $ 1 . >.>.",
">.k ^ B B I _ %. .^ P ; 2 . >.>.",
"9 U D C Z I [ -.X.| H < : . >.>.",
"w ^ N m D [ X.^ v v p < & . >.>.",
"g R ( ( { z d l >.c   , o >.>.>.",
"3 0 r e q 5 >.>.>.>.O < . >.>.>.",
">.>.>.>.>.>.>.>.>.. = < . >.>.>.",
">.>.>.>.>.>.>.>.>.. > < . >.>.>.",
">.>.>.>.>.>.>.>.>.. < - . >.>.>.",
">.>.>.>.>.>.>.>.>.. < % >.>.>.>.",
">.>.>.>.>.>.>.>.>.. . . >.>.>.>."
};
