/* XPM */
static const char *pickupable_moveable_xpm[] = {
/* columns rows colors chars-per-pixel */
"32 32 6 1 ",
"  c #010101",
". c gray1",
"X c #040404",
"o c magenta",
"O c #FBFBFB",
"+ c white",
/* pixels */
"oooooooooooooooooooooooooooooooo",
"oooooooooooooooooooooooooooooooo",
"oooooooooooooooooooooo  oooooooo",
"oooooooo ooooooooooo  ++  Xooooo",
"ooooooo + ooooooo   ++++++  Xooo",
"oooooo +++ ooooo ++++++++++++ oo",
"oooooo  +  ooooo   +++++++O   oo",
"oooo oo + oo ooo ++  ++++  +O oo",
"ooo +  +++  + oo ++++    ++++ oo",
"oo +++++++++++ o ++++++ +++++ oo",
"ooo +  +++  + oo ++++++ +++++ oo",
"oooo oo + oo ooo ++++++ +++++ oo",
"ooooooo + oooooo ++++++ +++++ oo",
"oooooo +++ oooooo  ++++ +++  ooo",
"ooooooo + ooooooooo  ++ +  ooooo",
"oooooooo oooooooooooo    ooooooo",
"ooooooooooooooooooooooooooo  ooo",
"oooooooooo     ooooooooooo ++ oo",
"ooooooooo +O+++       ooo +++ oo",
"oooooooo +++++++++++++ X +++ ooo",
"ooooo   ++++++++++++++ ++++ oooo",
"oooo ++  O++++++      ++++ ooooo",
"ooo ++++  +++++++++++++++ oooooo",
"oo ++++++  +++++++++++++ ooooooo",
"ooo ++++++  +           oooooooo",
"oooo O++++O   oooooooooooooooooo",
"ooooo ++++++ ooooooooooooooooooo",
"oooooo +++++Xooooooooooooooooooo",
"ooooooo +++ oooooooooooooooooooo",
"oooooooo + ooooooooooooooooooooo",
"ooooooooo oooooooooooooooooooooo",
"oooooooooooooooooooooooooooooooo"
};
