/* XPM */
static const char *pickupable_xpm[] = {
/* columns rows colors chars-per-pixel */
"32 32 6 1 ",
"  c #010101",
". c gray1",
"X c #040404",
"o c magenta",
"O c #FBFBFB",
"+ c #FEFEFE",
/* pixels */
"oooooooooooooooooooooooooooooooo",
"oooooooooooooooooooooooooooooooo",
"ooooooooooooooooooo  ooooooooooo",
"ooooooooooooooooo  ++  Xoooooooo",
"ooooooooooooooX  ++++++  Xoooooo",
"ooooooooooooo ++++++++++++ ooooo",
"ooooooooooooo   ++++++++   ooooo",
"ooooooooooooo ++  ++++  +O ooooo",
"ooooooooooooo ++++    ++++ ooooo",
"ooooooooooooo ++++++ +++++ ooooo",
"ooooooooooooo ++++++ +++++ ooooo",
"ooooooooooooo ++++++ +++++ ooooo",
"ooooooooooooo ++++++ +++++ ooooo",
"oooooooooooooo  ++++ +++  oooooo",
"oooooooooooooooo  ++ +  oooooooo",
"oooooooooooooooooo    ooooo  ooo",
"oooooooooo     ooooooooooo ++ oo",
"ooooooooo +++++       ooo +++ oo",
"oooooooo +++++++++++++ X +++ ooo",
"ooooo   ++++++++++++++ ++++ oooo",
"oooo ++  +++++++X     ++++ ooooo",
"ooo ++++  +++++++++++++++ oooooo",
"oo ++++++  +++++++++++++ ooooooo",
"oooX++++++  +X          oooooooo",
"oooo O++++O   oooooooooooooooooo",
"ooooo ++++++ ooooooooooooooooooo",
"oooooo +++++Xooooooooooooooooooo",
"ooooooo +++ oooooooooooooooooooo",
"oooooooo + ooooooooooooooooooooo",
"ooooooooo oooooooooooooooooooooo",
"oooooooooooooooooooooooooooooooo",
"oooooooooooooooooooooooooooooooo"
};
