/* XPM */
static const char *position_go_xpm[] = {
/* columns rows colors chars-per-pixel */
"16 16 50 1 ",
"  c #1F7B00",
". c #1E7B03",
"X c #1F7D00",
"o c #217D00",
"O c #257F00",
"+ c #2B8301",
"@ c #358707",
"# c #3B8B0F",
"$ c #438F15",
"% c #458F17",
"& c #49911B",
"* c #519721",
"= c #579828",
"- c #5B9B29",
"; c #5E9F3A",
": c #619D2F",
"> c #639F31",
", c #659F31",
"< c #5CA03C",
"1 c #67A133",
"2 c #6BA337",
"3 c #6DA337",
"4 c #6FA53D",
"5 c #5FA143",
"6 c #62A346",
"7 c #68A546",
"8 c #66A548",
"9 c #74AB4F",
"0 c #7CAF55",
"q c #81B35A",
"w c #80B361",
"e c #82B567",
"r c #85B666",
"t c #85B66A",
"y c #89B86B",
"u c #8EBA6F",
"i c #90BC74",
"p c #96C180",
"a c #97C282",
"s c #98C283",
"d c #9EC588",
"f c #A1C68A",
"g c #A1C78A",
"h c #A5C88D",
"j c #A9CA90",
"k c #A8CB90",
"l c #AACB91",
"z c #ADCD94",
"x c #B0CE96",
"c c None",
/* pixels */
"cccccccccccccccc",
"cccccccccccccccc",
"cccccccccccccccc",
"cccccccccccccccc",
"ccccccc2,ccccccc",
"ccccccc>q=cccccc",
"ccc431:0l9%ccccc",
"ccc2xzllig7@cccc",
"ccc>zuytwes<Occc",
"ccc-jhgdta8occcc",
"ccc*&$#;a6Xccccc",
"ccccccc+5 cccccc",
"ccccccco ccccccc",
"cccccccccccccccc",
"cccccccccccccccc",
"cccccccccccccccc"
};
