/* XPM */
static const char *protected_zone_xpm[] = {
/* columns rows colors chars-per-pixel */
"16 16 107 2 ",
"   c #321D16",
".  c #507A51",
"X  c #87581D",
"o  c #8F5F21",
"O  c #9A6A2B",
"+  c #9C6B2C",
"@  c #886534",
"#  c #976E35",
"$  c #A4722E",
"%  c #AC7935",
"&  c #AC7B38",
"*  c #B07E3A",
"=  c #4DA630",
"-  c #4CA631",
";  c #4DA631",
":  c #4CA534",
">  c #47A538",
",  c #45A33C",
"<  c #52A035",
"1  c #47B133",
"2  c #47B233",
"3  c #4CB335",
"4  c #3B9477",
"5  c #44864D",
"6  c #548D49",
"7  c #4C984C",
"8  c #539447",
"9  c #5B9946",
"0  c #478856",
"q  c #428559",
"w  c #4B8C59",
"e  c #79B75E",
"r  c #63A76A",
"t  c #74CD5F",
"y  c #77CE63",
"u  c #78CF64",
"i  c #7ACF66",
"p  c #75C568",
"a  c #7BCD6A",
"s  c #7CCF68",
"d  c #7DD06A",
"f  c #7ED16C",
"g  c #70C777",
"h  c #BB8436",
"j  c #B1803C",
"k  c #BE8C45",
"l  c #C08C42",
"z  c #C79246",
"x  c #CA974D",
"c  c #D49E53",
"v  c #D6A256",
"b  c #DBAF6E",
"n  c #DFB77D",
"m  c #80D16D",
"M  c #3C7BA0",
"N  c #3084A1",
"B  c #478787",
"V  c #78BCB3",
"C  c #90AB8D",
"Z  c #ACB3AC",
"A  c #E2BC86",
"S  c #C0B4A0",
"D  c #96C282",
"F  c #96CF8E",
"G  c #8ED680",
"H  c #92D884",
"J  c #94D986",
"K  c #9BDB90",
"L  c #A2C99D",
"P  c #A1DE95",
"I  c #A3DE97",
"U  c #A3DF98",
"Y  c #A4DF99",
"T  c #A5DE9B",
"R  c #A5DF9B",
"E  c #A7E09E",
"W  c #9EDCA7",
"Q  c #98D7B6",
"!  c #A9D3A0",
"~  c #A9E0A1",
"^  c #ABE1A2",
"/  c #AAE0A3",
"(  c #ABE0A3",
")  c #AFE3A7",
"_  c #B0E3A8",
"`  c #B0E3AA",
"'  c #B1E3AB",
"]  c #B6E4AE",
"[  c #B7E6B0",
"{  c #B7E6B2",
"}  c #B9E6B4",
"|  c #B9E7B4",
" . c #BAE7B6",
".. c #BCE7B7",
"X. c #BCE7B8",
"o. c #BFE9B9",
"O. c #BEE8BA",
"+. c #E4C18F",
"@. c #C0E9BD",
"#. c #C2E9BF",
"$. c #C3EBC1",
"%. c #C6EBC3",
"&. c #C7ECC5",
"*. c #C8ECC6",
"=. c #CBEDC9",
"-. c #FBF7EF",
";. c None",
/* pixels */
";.;.;.;.;.;.;.;.;.;.;.;.;.;.;.;.",
";.;.;.;.;.;.;.. 6 7 0 @ X X ;.;.",
";.;.;.;.;.;.< e #.] m 8 -.h X ;.",
";.B : - - = D &.=.O...S A $ ;.;.",
";.w O.X...$.&.) ..U W # +.o ;.;.",
";.8 ^ i u H U ] [ E F % b X ;.;.",
";.9 ^ i s H E .._ U L l n X ;.;.",
"M ! K d f H E &.| ] C v z X ;.;.",
"N ` y y G ) ..^ p g Z v * X ;.;.",
"4 T ~ / ` s 3 r Q V   c O ;.;.;.",
"q , 2 2 > 5 ;.;.;.;.+ v X ;.;.;.",
";.;.;.;.;.;.;.;.;.X j v X ;.;.;.",
";.;.;.;.;.;.;.;.;.X x v X ;.;.;.",
";.;.;.;.;.;.;.;.;.X v k X ;.;.;.",
";.;.;.;.;.;.;.;.;.X v & ;.;.;.;.",
";.;.;.;.;.;.;.;.;.X X X ;.;.;.;."
};
