/* XPM */
static const char *pvp_zone_xpm[] = {
/* columns rows colors chars-per-pixel */
"16 16 109 2 ",
"   c #321D16",
".  c #AA3428",
"X  c #AB3829",
"o  c #AB382B",
"O  c #A8392F",
"+  c #E91E0B",
"@  c #F51E03",
"#  c #F91F0C",
"$  c #CD2F18",
"%  c #D82512",
"&  c #D52E16",
"*  c #EA240A",
"=  c #EC240A",
"-  c #EC200C",
";  c #EB2A0C",
":  c #F52104",
">  c #F52404",
",  c #F52605",
"<  c #F52807",
"1  c #F72509",
"2  c #F7280B",
"3  c #FB2617",
"4  c #C43327",
"5  c #C33525",
"6  c #D7392E",
"7  c #FC3E31",
"8  c #87581D",
"9  c #8F5F21",
"0  c #9A6A2B",
"q  c #9C6B2C",
"w  c #886534",
"e  c #976E35",
"r  c #A4722E",
"t  c #AC7935",
"y  c #AC7B38",
"u  c #B07E3A",
"i  c #F94335",
"p  c #CE554B",
"a  c #FF5349",
"s  c #F9584D",
"d  c #F25D54",
"f  c #FF5B50",
"g  c #FA5C51",
"h  c #FF5C51",
"j  c #FF5E54",
"k  c #C0675E",
"l  c #FF6057",
"z  c #FF675C",
"x  c #FF685E",
"c  c #E56A60",
"v  c #F07570",
"b  c #BB8436",
"n  c #B1803C",
"m  c #BE8C45",
"M  c #C08C42",
"N  c #C79246",
"B  c #CA974D",
"V  c #D49E53",
"C  c #D6A256",
"Z  c #FF837C",
"A  c #FF857D",
"S  c #DBAF6E",
"D  c #DFB77D",
"F  c #D79493",
"G  c #D19898",
"H  c #FF8981",
"J  c #FF8A82",
"K  c #FF8C85",
"L  c #FE968F",
"P  c #FC9B93",
"I  c #FE9B94",
"U  c #FF9C95",
"Y  c #E2BC86",
"T  c #FFA09A",
"R  c #FFA09B",
"E  c #FFA29B",
"W  c #FFA29D",
"Q  c #FFA39D",
"!  c #FFA49F",
"~  c #FFA59F",
"^  c #FCA69F",
"/  c #C0B4A0",
"(  c #FFA8A2",
")  c #FFA8A3",
"_  c #FFAAA5",
"`  c #FFAEA9",
"'  c #FFB0AA",
"]  c #FEB2AC",
"[  c #FEB6B2",
"{  c #FFB9B5",
"}  c #FFBBB6",
"|  c #FFBBB7",
" . c #FFBCB8",
".. c #E4C18F",
"X. c #FFC1BD",
"o. c #FFC4C0",
"O. c #FFC7C4",
"+. c #FFC9C5",
"@. c #FFCAC7",
"#. c #FFCCC8",
"$. c #FECFCB",
"%. c #FFCFCD",
"&. c #FFD0CD",
"*. c #FFD4D1",
"=. c #FFDAD7",
"-. c #FFE0DF",
";. c #FFE8E7",
":. c #FBF7EF",
">. c None",
/* pixels */
">.>.>.>.>.>.>.>.>.>.>.>.>.>.>.>.",
">.>.>.>.>.>.>.O 4 5 o w 8 8 >.>.",
">.>.>.>.>.>.+ g $.' 7 6 :.b 8 >.",
">.< > > : @ P =.;.$.#./ Y r >.>.",
">.1 E ~ E | #.| *.~ U e ..9 >.>.",
">.# Q h f H ! +.+.Q v t S 8 >.>.",
">.3 Q j j J _ &. .R F M D 8 >.>.",
"$ L A z x K ' -. .| G C N 8 >.>.",
"; E f a A ` o.~ d g k C u 8 >.>.",
"2 P ( ( [ i - p >.c   V 0 >.>.>.",
"X & = * % . >.>.>.>.q C 8 >.>.>.",
">.>.>.>.>.>.>.>.>.8 n C 8 >.>.>.",
">.>.>.>.>.>.>.>.>.8 B C 8 >.>.>.",
">.>.>.>.>.>.>.>.>.8 C m 8 >.>.>.",
">.>.>.>.>.>.>.>.>.8 C y >.>.>.>.",
">.>.>.>.>.>.>.>.>.8 8 8 >.>.>.>."
};
