/* XPM */
static const char *rectangular_7_xpm[] = {
/* columns rows colors chars-per-pixel */
"16 16 68 1 ",
"  c #006699",
". c #016699",
"X c #016799",
"o c #05699A",
"O c #086B9B",
"+ c #096B9B",
"@ c #0F6F9C",
"# c #11709C",
"$ c #12719D",
"% c #14729D",
"& c #17749E",
"* c #18749E",
"= c #1D779F",
"- c #1F799F",
"; c #20799F",
": c #217AA0",
"> c #247CA0",
", c #267DA1",
"< c #277DA1",
"1 c #2A7FA1",
"2 c #2B80A2",
"3 c #2D81A2",
"4 c #2F82A2",
"5 c #3183A3",
"6 c #3485A3",
"7 c #3586A4",
"8 c #3686A4",
"9 c #3787A4",
"0 c #3C8AA5",
"q c #3D8BA5",
"w c #418DA6",
"e c #438EA6",
"r c #458FA7",
"t c #4B93A8",
"y c #4C94A8",
"u c #4E95A9",
"i c #5197A9",
"p c #5498AA",
"a c #5599AA",
"s c #599BAB",
"d c #5A9CAB",
"f c #5B9DAB",
"g c #61A0AC",
"h c #62A1AD",
"j c #66A3AD",
"k c #6AA6AE",
"l c #70A9AF",
"z c #71AAB0",
"x c #72AAB0",
"c c #76ADB1",
"v c #79AFB1",
"b c #7DB1B2",
"n c #80B3B3",
"m c #86B6B4",
"M c #87B7B4",
"N c #8AB9B5",
"B c #90BCB6",
"V c #95BFB7",
"C c #96C0B7",
"Z c #9EC5B9",
"A c #A1C7B9",
"S c #A6CABA",
"D c #ACCDBB",
"F c #B5D3BD",
"G c #B9D5BE",
"H c #C3DBC0",
"J c #D0E3C3",
"K c None",
/* pixels */
"KKKKKKKKKKKKKKKK",
"K              K",
"K       +#&=:: K",
"K     o#*:,359 K",
"K    O#=,390er K",
"K   O%-190ryia K",
"K  o#-29etafgj K",
"K  #=29eyagkzc K",
"K O*,9eyfjzvnm K",
"K #:30tdjzbMBV K",
"K *,9rpgzbNVAS K",
"K =30tfkvMVADF.K",
"K :5eigznBZDGH K",
"K :9rajcmCSGHJ K",
"K         ...  K",
"KKKKKKKKKKKKKKKK"
};
