/* XPM */
static const char *rectangular_2_xpm[] = {
/* columns rows colors chars-per-pixel */
"16 16 2 1 ",
"  c #006699",
". c None",
/* pixels */
"................",
"................",
"................",
"................",
"................",
"................",
"......    ......",
"......    ......",
"......    ......",
"......    ......",
"................",
"................",
"................",
"................",
"................",
"................"
};
