/* XPM */
static const char *rectangular_4_xpm[] = {
/* columns rows colors chars-per-pixel */
"16 16 14 1 ",
"  c #006699",
". c #016799",
"X c #05699A",
"o c #086B9B",
"O c #0F6F9C",
"+ c #12719D",
"@ c #14729D",
"# c #1D779F",
"$ c #1F799F",
"% c #2A7FA1",
"& c #2B80A2",
"* c #3787A4",
"= c #438EA6",
"- c None",
/* pixels */
"----------------",
"----------------",
"----------------",
"----------------",
"----        ----",
"----        ----",
"----     XO ----",
"----    o+# ----",
"----   o@$% ----",
"----  X+$&* ----",
"----  O#&*= ----",
"----        ----",
"----------------",
"----------------",
"----------------",
"----------------"
};
