/* XPM */
static const char *rectangular_6_xpm[] = {
/* columns rows colors chars-per-pixel */
"16 16 48 1 ",
"  c #006699",
". c #016699",
"X c #016799",
"o c #05699A",
"O c #086B9B",
"+ c #096B9B",
"@ c #0F6F9C",
"# c #11709C",
"$ c #12719D",
"% c #14729D",
"& c #17749E",
"* c #18749E",
"= c #1D779F",
"- c #1F799F",
"; c #20799F",
": c #267DA1",
"> c #277DA1",
", c #2A7FA1",
"< c #2B80A2",
"1 c #2D81A2",
"2 c #2F82A2",
"3 c #3485A3",
"4 c #3686A4",
"5 c #3787A4",
"6 c #3C8AA5",
"7 c #3D8BA5",
"8 c #418DA6",
"9 c #438EA6",
"0 c #458FA7",
"q c #4B93A8",
"w c #4C94A8",
"e c #4E95A9",
"r c #5498AA",
"t c #599BAB",
"y c #5A9CAB",
"u c #5B9DAB",
"i c #62A1AD",
"p c #66A3AD",
"a c #6AA6AE",
"s c #70A9AF",
"d c #72AAB0",
"f c #79AFB1",
"g c #7DB1B2",
"h c #87B7B4",
"j c #8AB9B5",
"k c #95BFB7",
"l c #A1C7B9",
"z c None",
/* pixels */
"zzzzzzzzzzzzzzzz",
"zzzzzzzzzzzzzzzz",
"zz            zz",
"zz       +$&= zz",
"zz     o$*;>1 zz",
"zz    O$=>156 zz",
"zz   O%-,360w zz",
"zz  o$-<48qru zz",
"zz  @=,58wtia zz",
"zz O%>48wupsf zz",
"zz #;36wupdgh zz",
"zz %:40ridgjk zz",
"zz =36qtafhkl zz",
"zz       ...  zz",
"zzzzzzzzzzzzzzzz",
"zzzzzzzzzzzzzzzz"
};
