/* XPM */
static const char *spawns_xpm[] = {
/* columns rows colors chars-per-pixel */
"32 32 54 1 ",
"  c black",
". c #4B0078",
"X c #4E007C",
"o c DimGray",
"O c #520083",
"+ c #550088",
"@ c #58008C",
"# c #5B0091",
"$ c #5E0097",
"% c #5F0098",
"& c #60009A",
"* c #63009E",
"= c #6500A1",
"- c #6700A5",
"; c #6E00B0",
": c #7300B8",
"> c #7700BF",
", c #7A00C3",
"< c #7A00C4",
"1 c #7C00C7",
"2 c #7E00C9",
"3 c #8300D2",
"4 c #8400D3",
"5 c #8400D4",
"6 c #8700D8",
"7 c #8800DA",
"8 c #8D00E1",
"9 c #9100E8",
"0 c #9702F0",
"q c #9805F0",
"w c #9B0CF1",
"e c #9D10F1",
"r c #9E14F1",
"t c #A421F2",
"y c #A627F2",
"u c #A72AF2",
"i c #A82CF3",
"p c #A92FF3",
"a c #AA31F3",
"s c #AB34F3",
"d c #AE3BF3",
"f c #B03EF4",
"g c magenta",
"h c #B040F4",
"j c #B244F4",
"k c #B346F4",
"l c #B54BF4",
"z c #B64DF5",
"x c #B751F5",
"c c #BA57F5",
"v c #BB5AF5",
"b c #BD5EF6",
"n c #BE61F6",
"m c white",
/* pixels */
"gggggggggggggggggggggggggggggggg",
"ggggggggggggggg  ggggggggggggggg",
"ggggggggggg    oo    ggggggggggg",
"ggggggggg  ommmmmmmmo  ggggggggg",
"ggggggg  omm mmmmmm mmo  ggggggg",
"gggggg ommmm mmmmmm mmmmo gggggg",
"ggggg ommmmm m    m mmmmmo ggggg",
"gggg ommmmmm   js   mmmmmmo gggg",
"gggg mmmmmmm  zhie  mmmmmmm gggg",
"ggg ommmm mm lldt05 mm mmmmo ggg",
"ggg mm mm mm hhar8< mm mm mm ggg",
"gg omm mm mm  duw6  mm mm mmo gg",
"gg mmm  mm  m      m  mm  mmm gg",
"gg mmmm mmm    jy    mmm mmmm gg",
"gg mmmm   m  bvlie9  m   mmmm gg",
"g ommmmmm   nnvlae97   mmmmmmo g",
"g ommmmmmm bbbclaw972 mmmmmmmo g",
"gg mmmmmm  vvcxjyq82:  mmmmmm gg",
"gg mmmmm  jlljfie81;*$  mmmmm gg",
"gg mmmm   iiutrq4;&+X.   mmmm gg",
"gg ommm m req96>=O.... m mmmo gg",
"ggg mm mmm 84,;%..... mmm mm ggg",
"ggg om mm  3:-#......  mm mo ggg",
"gggg mmm  m =@...... m  mmm gggg",
"gggg omm mmm  ....  mmm mmo gggg",
"ggggg om mmmm      mmmm mo ggggg",
"gggggg ommmmmmmmmmmmmmmmo gggggg",
"ggggggg  ommmmmmmmmmmmo  ggggggg",
"ggggggggg  ommmmmmmmo  ggggggggg",
"ggggggggggg    oo    ggggggggggg",
"ggggggggggggggg  ggggggggggggggg",
"gggggggggggggggggggggggggggggggg"
};
