/* XPM */
static const char *rme_icon[] = {
"48 48 256 2",
"   c #00c100",
" . c #00a01b",
" + c #f1bf00",
" @ c #01b700",
" # c #009c01",
" $ c #002800",
" % c #5ca040",
" & c #e6dac7",
" * c #fffaac",
" = c #aeb2bb",
" - c #647dae",
" ; c #cbc8d8",
" > c #e9bc55",
" , c #306396",
" ' c #93b2c9",
" ) c #dc8d0e",
" ! c #f3d94f",
" ~ c #c8b4a1",
" { c #01ac01",
" ] c #e53e3a",
" ^ c #01cb01",
" / c #a05913",
" ( c #8b5d1a",
" _ c #fffcba",
" : c #91e279",
" < c #6de45a",
" [ c #cac5c8",
" } c #71829d",
" | c #bbc9f4",
" 1 c #efd46f",
" 2 c #f7d770",
" 3 c #163d65",
" 4 c #3e71a2",
" 5 c #2c9210",
" 6 c #ade38a",
" 7 c #688bae",
" 8 c #c87b11",
" 9 c #19324f",
" 0 c #8d9bbc",
" a c #fffbc3",
" b c #396a9c",
" c c #33cc1c",
" d c #aa782d",
" e c #fffbcb",
" f c #e8c06f",
" g c #fdf194",
" h c #1c9507",
" i c #edc670",
" j c #efc14d",
" k c #a7a898",
" l c #eac45c",
" m c #74e375",
" n c #fffddc",
" o c #a2b35a",
" p c #aa7212",
" q c #e9a06e",
" r c #069613",
" s c #54c666",
" t c #fae130",
" u c #fffff7",
" v c none",
" w c #f5d369",
" x c #bae299",
" y c #038402",
" z c #305f8f",
" A c #0c1a2a",
" B c #e9ae2f",
" C c #a8864b",
" D c #225788",
" E c #fcda75",
" F c #517daa",
" G c #dcddb7",
" H c #f4cc64",
" I c #26ba15",
" J c #6ed94a",
" K c #bfe7a1",
" L c #fdebb3",
" M c #7fd48c",
" N c #ce8a2e",
" O c #045903",
" P c #264a72",
" Q c #8d9156",
" R c #fffcd3",
" S c #332c25",
" T c #3e5974",
" U c #cf4538",
" V c #f4834b",
" W c #5983ae",
" X c #80d971",
" Y c #b77717",
" Z c #eb970e",
" ` c #e5db9d",
".  c #8dabc8",
".. c #231ea5",
".+ c #17d218",
".@ c #425d87",
".# c #fff9b2",
".$ c #15c80c",
".% c #52dd3e",
".& c #678db6",
".* c #fffffe",
".= c #1828ec",
".- c #0dad25",
".; c #4cac21",
".> c #275179",
"., c #87a7c7",
".' c #918fc6",
".) c #f9e80d",
".! c #f2ba99",
".~ c #f8b157",
".{ c #fef6b2",
".] c #060c15",
".^ c #f8dcc9",
"./ c #bec1cb",
".( c #d9e6af",
"._ c #266f72",
".: c #ee9d24",
".< c #e5e5ce",
".[ c #fffdeb",
".} c #ccab92",
".| c #d4d197",
".1 c #446ba8",
".2 c #54de54",
".3 c #65e167",
".4 c #12273d",
".5 c #2f688e",
".6 c #275e94",
".7 c #17de0a",
".8 c #187a48",
".9 c #faa5a2",
".0 c #4c659b",
".a c #3ac64a",
".b c #f1d1b4",
".c c #2fd72e",
".d c #a1de7e",
".e c #fbf2e2",
".f c #b0abc5",
".g c #878c69",
".h c #db9d34",
".i c #feea8c",
".j c #1bc629",
".k c #05d302",
".l c #c7a46c",
".m c #fcf7ed",
".n c #37d837",
".o c #69c237",
".p c #e9b23c",
".q c #606433",
".r c #28a454",
".s c #8ca5be",
".t c #758bb9",
".u c #a3661a",
".v c #ffff94",
".w c #c47f21",
".x c #2e5c89",
".y c #51536e",
".z c #1e3d5d",
".A c #fae7a7",
".B c #2f7d16",
".C c #c3d2b6",
".D c #7a9ec0",
".E c #108190",
".F c #6c7996",
".G c #d9d8c1",
".H c #6d93ba",
".I c #edcd8c",
".J c #4ec95f",
".K c #f3ba4c",
".L c #117310",
".M c #edca2e",
".N c #1a5388",
".O c #dde0fc",
".P c #10c718",
".Q c #26588a",
".R c #fdf3af",
".S c #34628e",
".T c #e6c799",
".U c #0bcf0c",
".V c #f3615b",
".W c #ffffe3",
".X c #7497bb",
".Y c #f6e5c8",
".Z c #a66b0b",
".` c #224468",
"+  c #403d31",
"+. c #96e78f",
"++ c #8c918f",
"+@ c #cdc1b1",
"+# c #dcaa3b",
"+$ c #27d427",
"+% c #98adc5",
"+& c #ace590",
"+* c #5ae05d",
"+= c #dbd8dc",
"+- c #07bc15",
"+; c #e9b446",
"+> c #86a7c6",
"+, c #4774a3",
"+' c #d6d373",
"+) c #81a1c3",
"+! c #524eb7",
"+~ c #f6da74",
"+{ c #89a6ce",
"+] c #ba6901",
"+^ c #114e3a",
"+/ c #d0c5c7",
"+( c #c2c0b3",
"+_ c #fff9a5",
"+: c #f1c75a",
"+< c #2c5581",
"+[ c #88a5c4",
"+} c #46da46",
"+| c #afaac1",
"+1 c #fbe37d",
"+2 c #beb5c7",
"+3 c #644748",
"+4 c #fcec90",
"+5 c #716b57",
"+6 c #e00305",
"+7 c #d2d7fe",
"+8 c #8ba8c6",
"+9 c #f8e347",
"+0 c #f3d479",
"+a c #2c5883",
"+b c #375ba6",
"+c c #b86f0b",
"+d c #d6cdbb",
"+e c #d1a805",
"+f c #1e3855",
"+g c #e5e3b9",
"+h c #5767ff",
"+i c #e6ac35",
"+j c #43cd1c",
"+k c #f3f3fc",
"+l c #f6d896",
"+m c #383f50",
"+n c #f7a230",
"+o c #aabbc1",
"+p c #acd25e",
"+q c #305a91",
"+r c #1c5853",
"+s c #fff7c4",
"+t c #bfe589",
"+u c #9c846c",
"+v c #f9de7b",
"+w c #e4cbc8",
"+x c #586479",
"+y c #f6df05",
"+z c #fff79f",
"+A c #5558d5",
"+B c #fdf49a",
"+C c #57df4c",
"+D c #84652f",
"+E c #494740",
"+F c #64dc61",
"+G c #4ed559",
" v v v v v v v v v v v v v v v v v v v+8+8+[+)+).D.X.X.X v v v v v v v v v v v v v v v v v v v v",
" v v v v v v v v v v v v v v v v. . . +8+8+[+)+).D.X.X.X.&.& W v v v v v v v v v v v v v v v v v",
" v v v v v v v v v v v v v v v v. . . +8+8+[+)+).D.X.X.X.&.& W v v v v v v v v v v v v v v v v v",
" v v v v v v v v v v v v v+>+>+{+%+%+>+8+8+)+)+).s.f.f+| 0 0.t F F W v v v v v v v v v v v v v v",
" v v v v v v v v v v+)+)+[././ x x x &+)+)+[.D.D+d < <+C J J.% k k.1 b b.1 v v v v v v v v v v v",
" v v v v v v v v v v+)+)+[././ x x x &+)+)+[.D.D+d < <+C J J.% k k.1 b b.1 v v v v v v v v v v v",
" v v v v v v v v v '+)+)+o+&+&.3.3.3 G.,.,+)+%+%+d+G+G+}.n.n.c.j.j J } }.6 b b v v v v v v v v v",
" v v v v v v v.H.H.H+w+w+* m m m+g+g [.,.,+w.(.(.2.2.2.J.n.n+$.+.+ ^+p+p++.6.6.t v v v v v v v v",
" v v v v v v v.H.H.H+w+w+* m m m+g+g [.,.,+w.(.(.2.2.2.J.n.n+$.+.+ ^+p+p++.6.6.t v v v v v v v v",
" v v v v v v 0.&.& = : : 6.^.^.^+%+%.Y+g+g+..3.3.3.2.2+}.n.n+$.U.U ^.$.$.!.S.S.x.x.x v v v v v v",
" v v v v v v -.|.|+t 6 6+w+)+)+)+8+8.Y.3.3 m m m.3.2.2+}.c.c.+.U.U ^ c c.}.N.N.x.Q.Q+x v v v v v",
" v v v v v v -.|.|+t 6 6+w+)+)+)+8+8.Y.3.3 m m m.3.2.2+}.c.c.+.U.U ^ c c.}.N.N.x.Q.Q+x v v v v v",
" v v v v F F+@+(+(.t+w+w+%+)+)+8. . ./ K K m m m.3.2.2+}.c.c.++-+-.-.!.!.S.x.x+a+a+a+< v v v v v",
" v v v F F F 7 W W.&.H.H.X+)+)+)+>+>.G.(.( m m m.3.2.2+}+$+$.U ^ ^+-.}.} D.x.x+<+<+< P.E.E+e ) )",
" v v v F F F 7 W W.&.H.H.X+)+)+)+>+>.G.(.( m m m.3.2.2+}+$+$.U ^ ^+-.}.} D.x.x+<+<+< P.E.E+e ) )",
" v v v+,+,+, F W W 7.&.&+(+2+2+/+o+o./ & & m m m.3.2.2.n+$+$ ^ ^ ^   I I 8.Z.Z.>.>.> C a a.) Z Z",
" v b b b 4 4+, 4 4 F F F+| X X x [ [+).G.G m m m.3.2.2.n.+.+ ^       . .+9 + ++D.`.`.l+4+4 Z p p",
" v b b b 4 4+, 4 4 F F F+| X X x [ [+).G.G m m m.3.2.2.n.+.+ ^       . .+9 + ++D.`.`.l+4+4 Z p p",
" v+q+q , , , b ~ ~.|.|.| ` s s.d+d+d+/.C.C M.3.3+*+}+}+$.U.U.u d d @+a+a e t t (+u+u.O U U S v v",
" b.S.S ,.F.F+' ^ ^ ^.U.U.+.a.a.n+}+}+F+*+*.3+*+*+}.n.n.w.Y.Y.*.*.*+c # #.l V V.g+7+7+h+3+3 S v v",
" b.S.S ,.F.F+' ^ ^ ^.U.U.+.a.a.n+}+}+F+*+*.3+*+*+}.n.n.w.Y.Y.*.*.*+c # #.l V V.g+7+7+h+3+3 S v v",
" z z z z.0.0+j     ^ ^ ^.P.j.j+$.c.c+}+}+}+}+}+} d.b.b.* u u.[.*.*+] O O++ { {+k+h+h.=+1+1.q S S",
".x.x.x.x.F.F.o           ^ ^ ^.k.r.r.r+$+$+$+c+c.m+k+k.O u u.[.w.w $ O O.T | |.=.=.=.v g g+c S S",
".x.x.x.x.F.F.o           ^ ^ ^.k.r.r.r+$+$+$+c+c.m+k+k.O u u.[.w.w $ O O.T | |.=.=.=.v g g+c S S",
"+a+a+a.N.g.g @ @ @ @ @ @       ^.5.5+b.r.r Y.e.e ;+!+!+A+=+=.* / /+5 f f k+h+h.. _ _+B.i.i Y S S",
"+a+a+a.@ o o { { { { @ @ @    ._+q+q z._._.T.W.W.'.......W.W n R R.W e e.{+u+u+#+#+# l.i.i Y S S",
"+a+a+a.@ o o { { { { @ @ @    ._+q+q z._._.T.W.W.'.......W.W n R R.W e e.{+u+u+#+#+# l.i.i Y S S",
"+<+<+<.> % % { { { { { { {.8.8+<+a+a+a 8 8 u R R n.<.< n n n R R R e a a _.#.# _+#+#+# 1 1.Z S S",
"+<+<+< T.g.g # # # r.>.>.>.>.>.>.>.>.>.Y.Y e e e R R R R R R R e e a _ _.# * * * H H l+1+1 S v v",
"+<+<+< T.g.g # # # r.>.>.>.>.>.>.>.>.>.Y.Y e e e R R R R R R R e e a _ _.# * * * H H l+1+1 S v v",
" v.>.>+x+x+x.; # #+r P P P P P P P P+] n n _.b.b.9+s+s a a a a a a _.#.# *+_+_.~+n+n.: > > S v v",
" v P P P T T Q y y.`.`.`.`.`.`.`.`.`.w+s+s.! ] ].V L L _ _ _ _ _ _.# * *+_ g g Z ) ).K p p S v v",
" v P P P T T Q y y.`.`.`.`.`.`.`.`.`.w+s+s.! ] ].V L L _ _ _ _ _ _.# * *+_ g g Z ) ).K p p S v v",
" v v v.>.y.y h.L.L+r.`.`.`.`.`.z.z.z N.R.R q+6+6+6 _ _.#.#.#.#.#.# *+_+_+_ g g w H H 2 S S v v v",
" v v v v.y.y 5 y y y+^+^.z.z.z.z.z.z N.A.A *.I.I * * * * * *+_+_+_+B+.+..%.i.i+1+v+v Y S S v v v",
" v v v v.y.y 5 y y y+^+^.z.z.z.z.z.z N.A.A *.I.I * * * * * *+_+_+_+B+.+..%.i.i+1+v+v Y S S v v v",
" v v v v 3 3+5 y y y y y+^+f+f+f+f+f.w+l+l+B+z+z+z+z+z+_+_+_+z+z+z c.7.7 ^+v+v+~+i+i S v v v v v",
" v v v v v v 3.y.y.B.L.L.q 9 9+^ O O+]+l+l.i+4+4 g+1+1 t+9+9+4+4+4 I @ @.; E E j ( ( S v v v v v",
" v v v v v v 3.y.y.B.L.L.q 9 9+^ O O+]+l+l.i+4+4 g+1+1 t+9+9+4+4+4 I @ @.; E E j ( ( S v v v v v",
" v v v v v v v.z.z+m+5+5+f 9 9.L O O Y i i+0+1+1+v+y+y+y ! !+1+1+1+1 1 1 2 j j+] S S v v v v v v",
" v v v v v v v v v+f+f+f 9+m+m.q O O O 8 8 f 2 2+v.M.M.M+v+v+~ 2 2 w H H+i+]+] S v v v v v v v v",
" v v v v v v v v v+f+f+f 9+m+m.q O O O 8 8 f 2 2+v.M.M.M+v+v+~ 2 2 w H H+i+]+] S v v v v v v v v",
" v v v v v v v v v v 9 9 9 9 9+E O O O d d.h > > l w w w w w H+:+:.p ) ) ( S S v v v v v v v v v",
" v v v v v v v v v v v v 9 9 9.4+m+m+E+ +  d 8 8+;+;+;.p.p.p B ) )+] S S S v v v v v v v v v v v",
" v v v v v v v v v v v v 9 9 9.4+m+m+E+ +  d 8 8+;+;+;.p.p.p B ) )+] S S S v v v v v v v v v v v",
" v v v v v v v v v v v v v v v.4.4.4.4.4.4 A.].].u+]+]+]+]+].u S S S v v v v v v v v v v v v v v",
" v v v v v v v v v v v v v v v v v v.4.4.4.4.4.4 S S S S S S S v v v v v v v v v v v v v v v v v",
" v v v v v v v v v v v v v v v v v v.4.4.4.4.4.4 S S S S S S S v v v v v v v v v v v v v v v v v",
};