/* XPM */
static char *rme_icon[] = {
/* width height ncolors chars_per_pixel */
"48 48 256 2",
"   c #000001",
" . c #fffaac",
" + c #01030b",
" @ c #b8c7c6",
" # c #fbeaa8",
" $ c #eaa937",
" % c #788c8a",
" & c #b96c08",
" * c #4aa1a4",
" = c #faebcc",
" - c #75c8b5",
" ; c #8f886f",
" > c #3c959f",
" , c #fdfdf4",
" ' c #c2bcc6",
" ) c #fffaa5",
" ! c #faf89a",
" ~ c #8d8bc3",
" { c #57706f",
" ] c #98a498",
" ^ c #8cb399",
" / c #b9d6da",
" ( c #645eb4",
" _ c #fffbb3",
" : c #e6a728",
" < c #3a686a",
" [ c #5a4b30",
" } c #196a93",
" | c #ecbd90",
" 1 c #ced2cd",
" 2 c #84a58b",
" 3 c #e0b575",
" 4 c #fceb8c",
" 5 c #065b88",
" 6 c #19222c",
" 7 c #a9b8cb",
" 8 c #f8d875",
" 9 c #fff7b2",
" 0 c #f4d796",
" a c #16ae0d",
" b c #f5d46a",
" c c #5daaa3",
" d c #c7d4cc",
" e c #fae37b",
" f c #81b0be",
" g c #d8d165",
" h c #76714f",
" i c #42949f",
" j c #e89e9a",
" k c #cbc5b5",
" l c none",
" m c #413eae",
" n c #f59d2c",
" o c #0e1827",
" p c #ad6e16",
" q c #fbdd7a",
" r c #d9982a",
" s c #040b14",
" t c #5e8577",
" u c #fef18d",
" v c #b4d3bc",
" w c #f1cfae",
" x c #77b4b8",
" y c #fcec0c",
" z c #8ab6c7",
" A c #bde1d2",
" B c #b7c6bb",
" C c #bad9c5",
" D c #ebb365",
" E c #abcad5",
" F c #fffcc3",
" G c #3a768b",
" H c #dd1511",
" I c #d9a539",
" J c #6a7965",
" K c #fdf294",
" L c #817963",
" M c #241918",
" N c #2d413e",
" O c #166a8d",
" P c #efce72",
" Q c #fefcd3",
" R c #ecebe8",
" S c #5a68fa",
" T c #433b31",
" U c #6e4d13",
" V c #539da7",
" W c #aa670c",
" X c #0a131c",
" Y c #e8bb55",
" Z c #348a9c",
" ` c #fbe482",
".  c #89a6a9",
".. c #c6d9d3",
".+ c #568b8f",
".@ c #a8c7b5",
".# c #d89b47",
".$ c #6c81ff",
".% c #65aab3",
".& c #d28414",
".* c #94d394",
".= c #31281e",
".- c #d3870e",
".; c #f1615b",
".> c #7396ac",
"., c #ab792e",
".' c #c56f07",
".) c #fefbe5",
".! c #eadba7",
".~ c #ea9419",
".{ c #897752",
".] c #a9bab7",
".^ c #f2c759",
"./ c #e62b2a",
".( c #4f4d49",
"._ c #fef49c",
".: c #fced93",
".< c #c7e5e2",
".[ c #4c5f70",
".} c #2777a1",
".| c #53cb27",
".1 c #4996a4",
".2 c #9dcc4b",
".3 c #8c672f",
".4 c #ab863a",
".5 c #9abcc5",
".6 c #fae8b8",
".7 c #2e6e8a",
".8 c #565dc9",
".9 c #cce2d5",
".0 c #ecc557",
".a c #f1d095",
".b c #87a996",
".c c #374a4d",
".d c #e1513b",
".e c #014c88",
".f c #4b643e",
".g c #bb7816",
".h c #0dcc07",
".i c #e2dedb",
".j c #347ea1",
".k c #ade470",
".l c #d9751c",
".m c #ee8c13",
".n c #f3d608",
".o c #c9d5f0",
".p c #c5e2da",
".q c #b5d5c1",
".r c #3a87a3",
".s c #d4994f",
".t c #96aeb3",
".u c #667877",
".v c #74cb8d",
".w c #2d7889",
".x c #ecb747",
".y c #c3dccc",
".z c #165795",
".A c #d4b451",
".B c #fcf6a8",
".C c #938a5c",
".D c #a9d4cf",
".E c #518465",
".F c #88591e",
".G c #e9b23d",
".H c #8b7f80",
".I c #345766",
".J c #7ea788",
".K c #477c91",
".L c #3c8b9d",
".M c #9fcad2",
".N c #ba740a",
".O c #97a9a8",
".P c #daece2",
".Q c #bedaca",
".R c #9b6e23",
".S c #1f2dea",
".T c #288297",
".U c #92b99c",
".V c #a4c665",
".W c #9a600b",
".X c #47899a",
".Y c #503a1c",
".Z c #fffbbc",
".` c #3a7d95",
"+  c #c87809",
"+. c #6eaeaf",
"++ c #b69c6a",
"+@ c #fffccb",
"+# c #5b397b",
"+$ c #b87d25",
"+% c #98b9a5",
"+& c #58a7a8",
"+* c #a7c6cb",
"+= c #1c7597",
"+- c #835a2b",
"+; c #6b502a",
"+> c #caddd2",
"+, c #97b5bb",
"+' c #8b9289",
"+) c #bad5c4",
"+! c #f1e8da",
"+~ c #010df8",
"+{ c #fbf265",
"+] c #272a2a",
"+^ c #a5c6af",
"+/ c #ed524f",
"+( c #589a9b",
"+_ c #736239",
"+: c #cc7d11",
"+< c #f3ce31",
"+[ c #96c8c8",
"+} c #687756",
"+| c #63815c",
"+1 c #d4e5da",
"+2 c #fffedc",
"+3 c #58e254",
"+4 c #3b859c",
"+5 c #f3d44c",
"+6 c #cfae70",
"+7 c #448394",
"+8 c #7172ce",
"+9 c #fbea5b",
"+0 c #396950",
"+a c #596a5c",
"+b c #abb7b2",
"+c c #e2f197",
"+d c #f3ae09",
"+e c #ecc769",
"+f c #abd2b9",
"+g c #cb8e33",
"+h c #764e1c",
"+i c #869598",
"+j c #bad8e1",
"+k c #769399",
"+l c #728870",
"+m c #fbe79a",
"+n c #287897",
"+o c #2c29b1",
"+p c #694e59",
"+q c #37849a",
"+r c #f6de7b",
"+s c #8584f8",
"+t c #b6ced7",
"+u c #1fde16",
"+v c #5897b0",
"+w c #955e13",
"+x c #191311",
"+y c #347d9b",
"+z c #f7e03d",
"+A c #71c937",
"+B c #68888b",
"+C c #478ca4",
"+D c #31302f",
"+E c #eac68a",
"+F c #1511ac",
"+G c #fefefd",
" l l l l l l l l l l l l l l l l l l l l l l l l l l l l l l l l l l l l l l l l l l l l l l l l",
" l l l l l l l l l l l l l l l l l l l l l l l l l l l l l l l l l l l l l l l l l l l l l l l l",
" l l l l l l l l l l l l l l l l l l l l l l l l l l l l l l l l l l l l l l l l l l l l l l l l",
" l l l l l l l l l l l l l l l l l } } O+n i V+. c V.1 Z+n l l l l l l l l l l l l l l l l l l l",
" l l l l l l l l l l l l l l l }+=+C x.D /.p.< d B.]+, x.%.1 Z+q l l l l l l l l l l l l l l l l",
" l l l l l l l l l l l l l+=+n.%.M.<.<+j.<+j+t.. R+1.i 1+t.D+[ -+&.X l l l l l l l l l l l l l l",
" l l l l l l l l l l l l+n V+[ / /+j E / / / / @.P.P.P+1+> @+t E x.% V l l l l l l l l l l l l l",
" l l l l l l l l l l l.r x A+j+t E+t / /+j.. B+1.P+1+1.P.P 1 @+j E x+.+. l l l l l l l l l l l l",
" l l l l l l l l l l G+..D E E E B B+).< / @+1.P+1+1+1+1.P+> @+j /+t f.%.% l l l l l l l l l l l",
" l l l l l l l l l.I.b B.].].]..+>.P B.].] @.P+1.9.9+1+1.9+b+*+j+j+j / z.%.1 l l l l l l l l l l",
" l l l l l l l l+y % d.P.9+>.9+1+1+1.9+>+>.9+1.9.9+1 d.O 7+* E E E+t /.p+[.1 V l l l l l l l l l",
" l l l l l l l+n.%. +b.] d+1.9+>.9+>+>.9.9+>+>.9.9+1 d.] E E E E E E+* E A f+C.L l l l l l l l l",
" l l l l l l 5.1.% z.O+'.].9+>+>.y+>+>+>+>.9+>+>.y.9+).]+j E E+*+*.5.5.5 E+[ x+7.w l l l l l l l",
" l l l l l l+= V+v.D.M f.].9.Q.y.y.y.9.y.y.y.y.y.y.9 B.t E /+t+*+,.O. .t.5+,. .+ < J l l l l l l",
" l l l l l } Z.r f.D z+i+b.p.Q.Q.Q.Q.y.Q.y.y.y.9.y+> B.O E+*+*+*.O.,+$.C. .t.> J+6.B l l l l l l",
" l l l l l+=.T.1+[ z. .]+).Q C.Q+).Q.y.Q.Q.y.Q.y.y.Q B+i.5.5.5+,. .4+d+ .{+k %.C.) _+< l l l l l",
" l l l l.}+= O.% f+i B A.Q+).Q.Q C+).Q C.Q.y C.q+).@ B+i.  z.t.  %.A y+d W.u.u.{.6 e+d l l l l l",
" l l l l+=.T.T+v.>.t+>.q.q.Q C C.q C.Q C+^+^+^.@+^+% ].{.{ ;. .>+'.!+{.n.g [ L k w.l.N l l l l l",
" l l l l O >.T.j.> ].Q+f.q.q.y.q C.q+f v.@.b ^ ^ L.,+$+g.#+g.4 %.H w.B+<.W h.i.o+s+#.f l l l l l",
" l l l l.T * O.j.X.O.Q+f v v.q+%+^ ^.J.U.J ^ 2.4+$ |+! l l ,.# L+B.C w+$+- R.o.$.S [+0 l l l l l",
" l l l.z+& * 5.r.`.b.q+f+f v v v C+f 2+%.E+l p.s.) l+G , ,+G.# L+k+l.V a.].o S+~+8 :+; l l l l l",
" l l l.e - i 5.j G J+^+f.q+f v+f+^.J.J.U.C p.a l l+G ,.) ,.a p %+B.H.*.v.o S+~.8 ! u+: l l l l l",
" l l l.e - * 5+y V {+l 2 2+f.U.b+%.U t h.N w l+G.o.o , , =., J+B L 3.Q.o S+~.8 ! u K I+} l l l l",
" l l l.e c > }+n+&.r G.7.I {.E.J 2.b+| &.a l 7+8+8 (.i l 3.F { h+6.! 7.$+~ (.B ).: K I+} l l l l",
" l l l } i+n Z+y.1.j.r+C+v N N+0+0.E.g 3 l 1+o+o+o m.i ,.!+g.4 3+@.! ~.S+p.0.:.:.: u I+} l l l l",
" l l l.z *+= }+&.1+n+y+4+4 V.+ {.E U.s ,.).i+o+F+F ~.)+2.)+@+@+2+@.Z k++ : I I I+r K I+} l l l l",
" l l l.z >.T 5 i+&.1.L+y.`.1+(.c.{+g+!.) Q+2 ' ~ '+2+2+2 Q Q Q F F.Z _ _+m P I I Y ` r+_ l l l l",
" l l l.z Z Z O.L+q i+&+& V+(+( <+w 3 l+@ Q Q+2+2+2 Q Q Q Q+@+@ F.Z.Z 9 . . ).0 I I.^.,.( l l l l",
" l l l l.j Z }.L+q+n+q+C.1+(+( t+$ =+2 F+@+@ Q Q Q Q Q+@+@+@ F.Z.Z _ 9 ) _ # Y.G+r.^.3+] l l l l",
" l l l l+C Z.T i i+y+4+4.X+7.X+_.s.)+@ F = w w+@+@+@+@ F F F.Z.Z _ . . )+m D n.~ ` Y+; X l l l l",
" l l l l ~.r Z Z i+y.r+C.X+7.+.R 3+2.Z | j j.;.6+@ F F F.Z.Z.Z _ . . . 4 n.~ n.m b+g [ + l l l l",
" l l l l l+C Z+q i+y.L+C+C+7 t.g+E+@ #+/+/.;./ # F.Z.Z.Z.Z.Z 9 9 ..B . `.m.m.- n b.R+] l l l l l",
" l l l l l+B.L > i.`+4+C.X+7+a.'.a F.a././ H.d.Z.Z.Z _ _ _ 9 . . ) )._._.^.~ $ e I [ s l l l l l",
" l l l l l l.K * -.`.`+C.X+7+a.'.a 9 ).d H./ 0 _ 9 9 9 . . . ) ).B+c K.: u ` ` b.R+] l l l l l l",
" l l l l l l.H G - -+7.X+7+7+a.'+E # ).B.a # _ . . . . ) ) ) ).k.*+3.k 4 e+r q r.Y s l l l l l l",
" l l l l l l l.[.` -+&+&+(+7+a.'+E+m._ ) ) ) ) ) ) . ) ) ! ).k+u+u+u.| ` q+r.x+w M l l l l l l l",
" l l l l l l l l.I.X+&.X+(+(+l & D 0.: K K._._ .._+9 u._ K._+A.h.h.h+A q+r.^.N.Y + l l l l l l l",
" l l l l l l l l l.[+( >.w.K t p.# 0 ` 4 4.: e+9+z y+9._ 4.:.2 a a.| g q.^+: U X l l l l l l l l",
" l l l l l l l l l [ {.+ >.w.7.3.& P 8 ` ` 4+z.n.n.n+5.: ` ` `.2.2 P q.^.-+h 6   l l l l l l l l",
" l l l l l l l l l l+x.(.++(.w+a & Y P 8+r `+<.n.n+< 8 `+r 8 8 q q b.0.-.W+]   l l l l l l l l l",
" l l l l l l l l l l l  +D { { G.R.&+e+e b+r b+<+< b q 8 b b b b.^.G.-+w+D   l l l l l l l l l l",
" l l l l l l l l l l l l     M.c+a & r+e.0+e b b b b b b b b.^.x :+ +h.=   l l l l l l l l l l l",
" l l l l l l l l l l l l l l    +]+_ & r Y Y Y.0.^.0.^.0.x.G :.- W+h X   l l l l l l l l l l l l",
" l l l l l l l l l l l l l l l+x   o+; W+: r.G.G.G.G $ :.~.-.N+w T s   l l l l l l l l l l l l l",
" l l l l l l l l l l l l l l l l l   X.(.3 W.'+:.&.-+ .N p.F.Y 6   l l l l l l l l l l l l l l l",
" l l l l l l l l l l l l l l l l l l l o o T+;.3+-+h [.Y.= X   l l l l l l l l l l l l l l l l l",
" l l l l l l l l l l l l l l l l l l l l l   + + + + +   l l l l l l l l l l l l l l l l l l l l",
" l l l l l l l l l l l l l l l l l l l l l l l l l l l l l l l l l l l l l l l l l l l l l l l l",
};